<svg version="1.1" id="Layer_1" xmlns="http://www.w3.org/2000/svg" xmlns:xlink="http://www.w3.org/1999/xlink" x="0px" y="0px"
	 width="100%" viewBox="0 0 852 152" enable-background="new 0 0 852 152" xml:space="preserve">
<path fill="#F8F7F7" opacity="1.000000" stroke="none" 
	d="
M648.000000,153.000000 
	C432.000031,153.000000 216.500046,153.000000 1.000058,153.000000 
	C1.000039,102.333366 1.000039,51.666729 1.000019,1.000072 
	C284.999939,1.000048 568.999878,1.000048 852.999878,1.000024 
	C852.999878,51.666595 852.999878,102.333191 852.999939,152.999893 
	C784.833313,153.000000 716.666687,153.000000 648.000000,153.000000 
M49.715553,55.781410 
	C49.511864,54.769085 49.308174,53.756756 48.860138,52.018845 
	C48.089657,52.009590 47.319180,52.000336 46.485981,52.055435 
	C46.485981,52.055435 46.531532,51.988331 47.188297,51.366489 
	C45.831314,49.611897 44.474331,47.857300 43.088924,46.062134 
	C43.088924,46.062134 43.072968,46.108540 43.590462,45.924183 
	C43.408695,45.572803 43.226925,45.221428 43.221603,44.316711 
	C43.371334,43.483456 43.521061,42.650204 43.555290,41.321594 
	C43.419598,41.219940 43.283901,41.118286 43.110344,40.275520 
	C42.071892,39.218761 41.033436,38.162006 39.156330,36.750019 
	C35.149403,37.571716 29.879288,35.225708 27.948755,41.248039 
	C26.686689,45.185081 25.389864,49.110981 23.516367,53.226944 
	C23.399734,53.819035 23.283100,54.411121 22.886547,55.493801 
	C22.971628,55.661758 23.056707,55.829720 23.074947,56.749779 
	C23.107052,57.500893 23.139154,58.252003 23.016537,59.980965 
	C22.622683,62.268261 22.228828,64.555557 21.425823,66.948586 
	C21.928923,67.967697 22.432024,68.986801 22.699421,70.753784 
	C22.190052,75.165642 21.680683,79.577499 20.987568,84.448853 
	C20.987568,84.448853 20.853874,84.925316 20.123638,84.990295 
	C19.681566,85.659866 19.239494,86.329437 18.956619,86.939812 
	C18.956619,86.939812 18.819515,87.101776 18.819515,87.101776 
	C18.819515,87.101776 18.897261,86.911316 19.643700,86.874649 
	C20.060194,87.866096 20.858746,88.868370 20.830988,89.847221 
	C20.654934,96.056015 22.833185,98.250694 29.707012,97.963821 
	C30.587696,97.724434 31.481045,97.522606 32.344311,97.231544 
	C32.860641,97.057465 33.329868,96.743675 33.820267,96.492683 
	C33.693352,96.447594 33.470860,96.424606 33.454521,96.353943 
	C33.313320,95.743324 32.926682,94.969696 33.159706,94.543335 
	C33.517563,93.888550 34.309002,93.470734 35.592472,93.064499 
	C36.598122,92.941322 37.603771,92.818138 38.609417,92.694954 
	C38.069897,90.822159 37.530376,88.949371 37.476601,87.087486 
	C37.476601,87.087486 37.948288,86.970963 38.531059,86.974472 
	C38.724724,86.959221 38.918388,86.943977 39.650528,86.753792 
	C39.874027,86.235893 40.097523,85.717995 40.931263,85.316872 
	C41.278095,84.862984 41.624928,84.409096 42.132820,83.469704 
	C42.095486,83.303329 42.058147,83.136963 42.107773,82.388275 
	C42.084877,82.193352 42.061985,81.998436 42.675713,82.120941 
	C43.197243,81.761986 43.718777,81.403023 44.743198,81.015663 
	C45.135704,80.753441 45.528206,80.491211 46.733044,80.390526 
	C51.439205,77.851585 50.736988,74.066605 48.757313,69.933113 
	C48.757313,69.933113 48.378941,69.918442 48.438011,69.094040 
	C47.955334,68.746948 47.472660,68.399857 47.202965,67.634605 
	C47.202965,67.634605 47.452225,67.236992 47.408527,67.191193 
	C47.408527,67.191193 47.366360,67.239098 48.275063,67.479309 
	C49.627953,62.833221 48.197231,60.122025 42.366177,59.215271 
	C43.902248,58.004887 45.438320,56.794502 47.632347,55.810505 
	C48.093845,55.793518 48.555344,55.776531 49.715553,55.781410 
M61.107597,81.448807 
	C61.107597,81.448807 61.182968,81.434647 61.149803,80.673431 
	C61.305088,70.874672 55.875191,62.861202 53.756699,53.934078 
	C53.041420,61.712734 52.496300,69.223785 52.131336,76.743591 
	C52.060776,78.197548 52.694538,79.685684 53.253735,81.556740 
	C53.466976,81.805840 53.734985,81.959320 53.942719,82.634850 
	C53.978481,83.051979 54.014244,83.469109 54.006901,84.371765 
	C54.006901,84.371765 53.987377,84.858826 53.328873,84.999115 
	C52.565434,85.417679 51.801998,85.836243 50.518021,86.210114 
	C50.344814,86.228218 50.171604,86.246315 49.390560,85.886658 
	C48.593826,85.613701 47.797092,85.340744 46.382286,84.970062 
	C45.985844,85.324921 45.589397,85.679787 44.864578,86.652359 
	C43.822575,88.655716 42.780571,90.659073 41.754295,92.748878 
	C41.754295,92.748878 41.667923,92.732635 40.962265,92.767181 
	C37.217525,96.434296 35.407494,100.753754 36.312668,106.070641 
	C36.935940,109.731697 37.422298,113.416077 37.469421,116.918930 
	C37.308731,116.992897 37.148041,117.066856 36.472088,116.712601 
	C35.987427,116.530792 35.502766,116.348976 35.018105,116.167160 
	C34.160789,123.651550 33.303474,131.135941 32.401798,139.007614 
	C48.995453,139.007614 64.422836,139.009155 79.850212,139.006821 
	C85.761963,139.005920 90.917015,133.303635 89.410332,127.600311 
	C87.176918,119.146080 84.279938,110.865402 81.583496,102.537369 
	C81.235985,101.464058 80.542839,100.413506 79.761696,99.586868 
	C77.628136,97.329018 75.361916,95.196526 74.014999,92.921410 
	C76.689911,91.762810 79.364830,90.604210 83.172134,88.955124 
	C80.096039,87.268593 78.348770,86.310616 76.202850,85.134079 
	C75.047165,87.928642 74.022530,90.406311 72.378700,92.417824 
	C67.763985,92.106369 65.793243,88.688034 63.856873,85.206001 
	C63.722183,84.963799 63.309570,84.876144 63.038303,84.354523 
	C63.038303,84.354523 62.997715,83.994499 62.956944,83.226387 
	C62.315533,82.628357 61.674122,82.030319 61.107597,81.448807 
M53.935524,46.042473 
	C53.935524,46.042473 53.889252,46.089272 54.048820,46.763660 
	C55.318310,47.580929 56.773094,49.286743 57.826340,49.067101 
	C63.448166,47.894722 62.842751,43.318249 62.902470,38.410625 
	C59.089027,40.955544 54.041691,36.998890 51.376949,42.540905 
	C51.661999,43.035576 51.947052,43.530251 52.124149,44.620907 
	C52.732399,45.115860 53.340652,45.610809 53.935524,46.042473 
M86.367287,86.540627 
	C86.209496,86.678154 86.051697,86.815689 85.090279,86.938507 
	C84.972160,88.265892 84.369156,89.791451 84.817101,90.887489 
	C87.171104,96.647293 89.790802,102.298492 92.335899,108.027176 
	C94.426163,107.892830 96.167274,107.780930 98.171188,107.652138 
	C96.116486,99.832031 94.154785,92.365852 92.000092,84.308037 
	C91.603409,83.872673 91.206718,83.437309 91.187614,82.247589 
	C89.236168,80.589378 85.493912,81.872910 82.579353,85.506233 
	C84.180916,85.746925 85.519669,85.948128 86.367287,86.540627 
M48.780598,31.378672 
	C48.254440,32.376968 47.910522,33.544163 47.169708,34.343529 
	C44.370796,37.363663 44.636486,40.135216 47.713615,43.128788 
	C51.340084,38.713215 53.134548,34.028427 52.398701,28.662924 
	C50.535755,29.636883 49.244476,30.311972 47.811600,30.268028 
	C49.208164,28.040068 50.604733,25.812107 52.001301,23.584146 
	C52.659748,23.751749 53.318199,23.919353 53.976646,24.086956 
	C54.244144,28.341644 54.511639,32.596333 54.784225,36.931950 
	C59.659878,38.104561 63.737362,36.038876 66.393562,32.030972 
	C68.799194,28.401131 66.312103,21.084503 62.275120,17.656027 
	C58.427494,14.388371 54.247501,14.164156 49.884399,16.991369 
	C45.118587,20.079540 42.964912,26.599579 44.789742,32.917042 
	C45.889355,32.245277 46.926498,31.611675 48.780598,31.378672 
M762.742737,83.162689 
	C764.373657,83.162689 766.004578,83.162689 767.828735,83.162689 
	C764.882446,96.086472 762.012085,108.676895 759.091736,121.486664 
	C780.491943,121.486664 801.418823,121.486664 822.655090,121.486664 
	C824.306091,114.106689 825.918518,106.899185 827.694702,98.959412 
	C816.043762,98.959412 805.189697,98.959412 794.023560,98.959412 
	C795.201233,94.016251 796.225464,89.717041 797.285156,85.269218 
	C801.208557,85.269218 804.693542,85.269234 808.178528,85.269218 
	C811.841431,85.269203 815.506104,85.337875 819.166809,85.248184 
	C822.307495,85.171234 825.443726,84.913155 828.581970,84.735168 
	C828.527832,84.240059 828.473755,83.744949 828.419617,83.249840 
	C826.657227,83.075081 824.894836,82.900330 822.923584,82.704865 
	C824.379333,76.150185 825.777832,69.853363 827.315247,62.931252 
	C816.866577,62.931252 806.840210,62.931252 796.372681,62.931252 
	C797.048706,60.074631 797.573792,57.855942 798.188660,55.257786 
	C809.525085,55.257786 820.627441,55.257786 831.899902,55.257786 
	C833.601135,47.688538 835.212585,40.518867 836.842896,33.265301 
	C815.338440,33.265301 794.417786,33.265301 773.319397,33.265301 
	C769.521423,50.013752 765.777222,66.524803 761.171753,82.990387 
	C759.783447,82.897217 758.395142,82.804047 756.798706,82.696915 
	C758.191711,76.256821 759.469788,70.347961 760.858154,63.929222 
	C750.508057,63.929222 740.756958,63.929222 730.987427,63.929222 
	C731.648987,55.341087 731.648987,55.340878 739.606018,55.340645 
	C748.223022,55.340393 756.839966,55.340588 765.648010,55.340588 
	C767.375305,47.695560 768.991272,40.543266 770.653442,33.186394 
	C749.313904,33.186394 728.723633,33.186394 707.803528,33.186394 
	C704.000244,49.718864 700.227295,66.119629 696.411926,82.705025 
	C698.706299,82.952393 700.323425,83.126740 702.208069,83.329933 
	C699.285522,96.089935 696.412170,108.635170 693.412170,121.733330 
	C702.387268,121.733330 710.528259,121.547745 718.653992,121.819199 
	C722.201660,121.937714 723.499756,120.800591 724.214172,117.320976 
	C726.307739,107.124611 728.859619,97.022354 731.277283,86.689445 
	C740.524353,86.689445 749.328613,86.652092 758.132263,86.712082 
	C760.792664,86.730209 762.963379,86.524185 762.742737,83.162689 
M498.899933,83.816826 
	C500.521057,83.816826 502.142212,83.816826 503.951447,83.816826 
	C503.951447,85.885033 504.000824,87.509010 503.943878,89.129257 
	C503.278351,108.065384 512.323914,119.993866 530.959473,123.403198 
	C546.832520,126.307152 562.061951,122.612373 576.878662,116.995384 
	C577.691833,116.687119 578.699280,115.849030 578.883606,115.081604 
	C581.347168,104.822655 583.680054,94.532310 586.076965,84.112892 
	C583.740601,83.840874 582.001953,83.638451 580.056824,83.411987 
	C580.961304,78.983910 581.802429,74.865479 582.680359,70.567230 
	C567.918945,70.567230 553.797241,70.567230 539.346008,70.567230 
	C538.385376,74.865486 537.458679,79.011787 536.496338,83.317726 
	C538.754211,83.685921 540.479797,83.967316 542.305359,84.265015 
	C541.826965,87.156006 541.400391,89.733765 540.880615,92.874496 
	C545.565796,92.874496 549.827820,92.874496 554.730103,92.874496 
	C552.836365,96.550354 555.351562,102.020569 549.713135,102.467430 
	C537.645203,103.423843 530.899292,99.268555 531.387024,86.365494 
	C531.415466,85.613068 531.390808,84.858635 531.390808,84.038330 
	C529.408569,83.839561 527.786194,83.676880 526.180420,83.515862 
	C526.496094,70.800385 538.787231,57.167316 552.072632,54.589710 
	C563.822998,52.309925 570.291382,55.213844 574.854919,64.811966 
	C577.813232,64.811966 580.771545,64.811966 583.782959,64.811966 
	C585.485413,57.647636 587.274475,50.720543 588.668274,43.714813 
	C588.927307,42.413002 588.016357,40.027077 586.936340,39.435047 
	C561.414734,25.445021 533.076843,29.771694 515.018616,50.187134 
	C506.533569,59.779804 501.346405,70.920639 497.235229,82.884476 
	C495.941376,82.775459 494.647522,82.666443 493.053467,82.532120 
	C496.846954,65.988525 500.574585,49.732071 504.324646,33.377846 
	C494.536041,33.377846 485.447784,33.377846 476.389954,33.377846 
	C474.073883,43.138027 471.834961,52.573086 469.596039,62.008144 
	C469.247314,62.030766 468.898590,62.053383 468.549835,62.076000 
	C465.506500,52.400276 462.463165,42.724548 459.505310,33.320595 
	C448.316772,33.320595 437.721893,33.320595 426.914734,33.320595 
	C423.136505,49.803402 419.409332,66.063438 415.666992,82.389801 
	C417.869415,82.788177 419.281067,83.043518 420.769012,83.312660 
	C417.863708,95.962753 415.016541,108.359665 412.100128,121.058151 
	C421.621002,121.058151 430.570679,121.058151 439.928436,121.058151 
	C441.397949,114.699287 442.828796,108.409790 444.308472,102.131805 
	C445.818298,95.726067 447.376129,89.331650 448.912933,82.932266 
	C450.587830,84.530479 451.286713,86.148285 451.799805,87.822998 
	C454.868134,97.838287 457.848297,107.880966 460.991425,117.872505 
	C461.381042,119.110970 462.535370,121.038925 463.377838,121.061501 
	C472.139130,121.296280 480.909119,121.206093 489.586456,121.206093 
	C492.498474,108.315865 495.246735,96.150475 498.899933,83.816826 
M286.542877,87.092232 
	C286.263031,85.689705 285.983154,84.287178 285.729614,83.016396 
	C283.482819,82.851540 281.687927,82.719833 279.484802,82.558182 
	C277.868439,66.075180 276.267883,49.753365 274.625122,33.001041 
	C265.863495,33.001041 257.402649,33.129105 248.949509,32.930325 
	C246.061111,32.862404 244.509033,33.806808 243.120407,36.336075 
	C235.274628,50.626553 227.231567,64.808640 219.287460,79.045372 
	C218.700394,80.097450 218.362839,81.288765 217.859436,82.539146 
	C219.952850,82.794930 221.524506,82.986961 223.729156,83.256340 
	C218.178802,93.175308 212.896973,102.614372 207.201965,112.791855 
	C201.801941,102.786278 196.859192,93.627953 191.898911,84.437149 
	C193.049652,83.358475 193.983551,82.483078 195.049240,81.484138 
	C193.818939,81.163345 192.828430,80.905083 192.546219,80.831497 
	C196.365707,75.611992 200.847977,70.774323 203.842072,65.145111 
	C211.700943,50.369579 206.403214,38.853832 190.146286,34.995911 
	C173.756744,31.106520 157.078522,32.365345 140.033157,32.839405 
	C136.379181,48.828823 132.760590,64.663406 129.106506,80.653336 
	C130.863297,80.945114 132.430862,81.205467 134.258499,81.509010 
	C131.214951,94.965408 128.235229,108.139664 125.160759,121.732742 
	C134.105667,121.732742 142.263321,121.531845 150.403091,121.826057 
	C153.937180,121.953796 155.366058,120.850372 156.040329,117.410912 
	C157.582718,109.543320 159.523254,101.753777 161.567947,92.763695 
	C166.051468,101.481499 170.263184,109.007423 173.806519,116.835861 
	C175.621826,120.846466 177.965088,121.988113 182.183243,121.828827 
	C193.798599,121.390213 205.516846,120.472404 217.033173,121.518593 
	C228.475082,122.558022 236.229736,119.841530 239.352264,108.129005 
	C239.519867,107.500381 239.819748,106.807770 240.277390,106.379128 
	C240.953033,105.746292 241.814560,104.901741 242.616333,104.880508 
	C247.714859,104.745430 252.818710,104.811813 257.946747,104.811813 
	C258.465057,110.581551 258.923065,115.680115 259.381073,120.778656 
	C269.696838,120.778656 279.689789,120.778656 289.738037,120.778656 
	C288.689789,109.529625 287.685944,98.757393 286.542877,87.092232 
M297.709595,100.472565 
	C300.084259,109.573578 305.350708,116.393745 314.136292,119.910782 
	C331.375549,126.811989 347.752563,123.257950 363.601929,115.138367 
	C364.399170,114.729980 365.278137,113.831924 365.477356,113.006882 
	C367.285187,105.520752 368.950104,98.000099 370.656830,90.489555 
	C370.308319,90.019516 369.959839,89.549484 369.611328,89.079453 
	C365.507416,90.368027 361.342072,91.492416 357.318817,92.996780 
	C354.061798,94.214630 351.062286,96.126083 347.798798,97.320900 
	C333.968292,102.384476 327.276825,98.198532 325.748444,83.710594 
	C325.733612,83.570160 325.553772,83.447128 325.295319,83.117355 
	C323.435699,82.912498 321.398895,82.688133 319.206757,82.446648 
	C320.257111,74.230873 323.151062,67.304337 328.588318,61.537556 
	C336.146423,53.521378 345.609833,52.618927 354.593323,59.074844 
	C356.209015,60.235935 357.624268,61.671825 359.186829,62.911804 
	C362.156372,65.268318 369.907257,64.808640 370.583801,62.108135 
	C372.469116,54.582176 374.073334,46.985794 375.861847,39.093822 
	C356.337097,28.881403 337.037140,28.311468 318.304352,39.025490 
	C301.815094,48.456333 293.882111,63.979362 290.649048,82.618736 
	C293.091309,82.790428 294.859985,82.914772 296.523865,83.031746 
	C296.866852,88.756081 297.192932,94.198082 297.709595,100.472565 
M623.793091,98.959251 
	C623.238342,97.801529 622.059326,96.534866 622.239014,95.505318 
	C622.946350,91.451965 624.080872,87.473175 625.106506,83.262794 
	C623.258240,82.946480 621.708374,82.681236 619.852051,82.363533 
	C623.644165,65.911728 627.369263,49.750782 631.156128,33.321800 
	C621.043701,33.321800 611.310181,33.321800 601.416138,33.321800 
	C597.649109,49.829689 593.935791,66.102425 590.196533,82.488609 
	C592.174011,82.767998 593.596252,82.968941 595.385986,83.221794 
	C592.479126,95.933907 589.648682,108.311646 586.691833,121.242218 
	C607.162354,121.242218 626.952576,121.279617 646.741577,121.135109 
	C647.763672,121.127640 649.421204,119.729935 649.684753,118.698730 
	C651.317688,112.312378 652.635986,105.845604 654.155884,98.966080 
	C644.021790,98.966080 634.379700,98.966080 623.793091,98.959251 
M692.122925,49.671722 
	C693.379639,44.238701 694.636292,38.805679 695.926758,33.226616 
	C685.690735,33.226616 675.934326,33.226616 666.022339,33.226616 
	C662.188477,49.754066 658.402405,66.075554 654.574036,82.579269 
	C656.678345,82.894852 658.385803,83.150917 660.360657,83.447090 
	C657.460938,96.195160 654.634338,108.621674 651.718628,121.440002 
	C661.993042,121.440002 671.716370,121.440002 681.661011,121.440002 
	C684.587097,108.683388 687.469116,96.118774 690.412537,83.286606 
	C688.287476,83.075500 686.675354,82.915352 684.620850,82.711266 
	C687.116272,71.809494 689.555298,61.153793 692.122925,49.671722 
M376.771576,89.226402 
	C374.315674,99.858070 371.859741,110.489738 369.264740,121.723564 
	C379.080627,121.723564 388.051758,121.807350 397.016357,121.603905 
	C397.995697,121.581680 399.543488,120.051956 399.803741,118.974182 
	C402.650391,107.186096 405.293213,95.348778 408.040131,83.311638 
	C406.062134,83.079071 404.305084,82.872482 402.257568,82.631744 
	C404.175049,74.323784 406.063080,66.231857 407.906921,58.129868 
	C409.777924,49.908669 411.605347,41.677551 413.558105,32.977501 
	C403.970001,32.977501 394.990021,32.896919 386.015961,33.090698 
	C385.017517,33.112255 383.416412,34.542912 383.167938,35.577751 
	C379.415558,51.205811 375.842804,66.877007 372.187164,82.714912 
	C374.312744,82.932190 376.088379,83.113693 377.996490,83.308739 
	C377.607666,85.170334 377.269318,86.790230 376.771576,89.226402 
M92.794601,62.597412 
	C91.792656,51.694378 88.831657,41.282860 84.959335,31.089890 
	C83.888168,28.270294 74.086517,23.859629 71.457596,25.223404 
	C70.662674,25.635780 69.724770,26.384565 69.493279,27.168514 
	C68.280815,31.274530 66.788094,35.386116 66.309341,39.599911 
	C65.577393,46.042240 63.032650,50.639416 55.268890,52.536602 
	C57.070312,54.636196 58.159069,57.160786 59.784485,57.573898 
	C65.624840,59.058289 70.600815,56.235241 76.429741,53.248226 
	C80.962479,58.086353 81.245445,65.533241 84.535004,71.591721 
	C80.265739,72.932701 76.261200,74.190536 72.169991,75.475586 
	C76.135429,83.009117 76.524834,83.184769 83.599792,81.022247 
	C92.726051,78.232735 94.656654,74.593269 92.794601,62.597412 
M111.402817,139.017792 
	C112.823555,138.910797 114.244293,138.803818 115.565971,138.704300 
	C116.846123,127.487297 119.780800,117.415794 114.613480,106.110512 
	C107.870102,91.357094 103.446793,83.710854 93.616722,81.725822 
	C96.473068,86.997292 99.236259,91.883430 101.794662,96.874557 
	C104.738976,102.618538 107.645126,108.390869 110.298347,114.272461 
	C112.378761,118.884277 110.767326,123.099815 106.190369,124.356812 
	C99.572449,126.174324 97.369843,130.171555 97.522255,136.388733 
	C97.540268,137.123581 97.272728,137.865417 97.061813,139.017883 
	C101.843781,139.017883 106.168526,139.017883 111.402817,139.017792 
M104.732323,113.037354 
	C107.382904,119.553215 105.653198,122.058372 98.887672,120.764496 
	C95.639267,120.143257 92.619514,118.326500 89.051758,116.869675 
	C89.555687,119.425751 89.820427,121.675095 90.501343,123.790474 
	C90.786362,124.675919 92.207268,126.045647 92.682144,125.889412 
	C97.791771,124.208351 102.873734,122.399330 107.796844,120.245003 
	C108.494240,119.939835 108.894386,117.357140 108.428085,116.252350 
	C105.571564,109.484489 102.425743,102.838730 99.376289,96.152298 
	C98.888817,96.374550 98.401344,96.596802 97.913872,96.819054 
	C98.190704,102.720604 100.950378,107.681259 104.732323,113.037354 
M78.454704,62.032513 
	C77.664696,60.496788 76.874695,58.961063 75.985161,57.231861 
	C71.197456,62.463062 70.266144,66.434799 72.079369,72.496826 
	C81.389191,69.947334 81.389191,69.947334 78.454704,62.032513 
M27.665001,121.381065 
	C28.347416,122.950417 29.029829,124.519768 29.712244,126.089127 
	C30.195637,125.960258 30.679031,125.831390 31.162426,125.702522 
	C32.183315,119.717316 33.204205,113.732101 34.225094,107.746887 
	C33.685394,107.605392 33.145699,107.463890 32.605999,107.322395 
	C30.978052,111.761948 29.350105,116.201500 27.665001,121.381065 
M90.959846,132.390076 
	C90.252640,134.469833 89.545425,136.549591 88.798485,138.746185 
	C90.994293,138.746185 92.737740,138.746185 94.835976,138.746185 
	C95.351318,135.188293 95.834030,131.855698 96.316742,128.523102 
	C95.774231,128.175827 95.231712,127.828560 94.689201,127.481293 
	C93.502998,128.851120 92.316795,130.220932 90.959846,132.390076 
M99.025909,118.701836 
	C100.492104,118.574875 101.958298,118.447914 103.780418,118.290131 
	C99.735489,111.112000 96.924332,110.240250 91.397949,114.689079 
	C93.897079,116.078346 96.074478,117.288765 99.025909,118.701836 
M87.000168,101.463905 
	C86.169273,99.968315 85.338379,98.472733 84.507477,96.977142 
	C84.074150,97.128670 83.640823,97.280190 83.207497,97.431717 
	C82.870651,102.278801 85.559204,106.408775 87.102074,111.079155 
	C92.058136,107.865761 88.260216,105.003456 87.000168,101.463905 
M23.974560,40.253414 
	C25.449579,38.994095 26.924597,37.734776 28.371748,36.499252 
	C26.129023,33.543194 24.382477,31.241133 22.635931,28.939072 
	C22.082249,29.139315 21.528564,29.339558 20.974880,29.539801 
	C21.838964,32.909222 22.703049,36.278645 23.974560,40.253414 
M65.225311,82.576996 
	C68.503868,86.335411 70.044090,82.260437 73.956497,80.822746 
	C71.323914,79.495834 69.574951,77.919357 68.643272,78.307030 
	C67.233925,78.893448 63.470078,78.071083 65.225311,82.576996 
M50.664482,61.783115 
	C50.275791,61.732105 49.887104,61.681091 49.498409,61.630081 
	C49.494781,61.913387 49.491150,62.196690 49.487522,62.479996 
	C49.876251,62.431786 50.264984,62.383579 50.664482,61.783115 
z"/>
<path fill="#314B7D" opacity="1.000000" stroke="none" 
	d="
M286.612488,87.538696 
	C287.685944,98.757393 288.689789,109.529625 289.738037,120.778656 
	C279.689789,120.778656 269.696838,120.778656 259.381073,120.778656 
	C258.923065,115.680115 258.465057,110.581551 257.946747,104.811813 
	C252.818710,104.811813 247.714859,104.745430 242.616333,104.880508 
	C241.814560,104.901741 240.953033,105.746292 240.277390,106.379128 
	C239.819748,106.807770 239.519867,107.500381 239.352264,108.129005 
	C236.229736,119.841530 228.475082,122.558022 217.033173,121.518593 
	C205.516846,120.472404 193.798599,121.390213 182.183243,121.828827 
	C177.965088,121.988113 175.621826,120.846466 173.806519,116.835861 
	C170.263184,109.007423 166.051468,101.481499 161.567947,92.763695 
	C159.523254,101.753777 157.582718,109.543320 156.040329,117.410912 
	C155.366058,120.850372 153.937180,121.953796 150.403091,121.826057 
	C142.263321,121.531845 134.105667,121.732742 125.160759,121.732742 
	C128.235229,108.139664 131.214951,94.965408 134.258499,81.509010 
	C132.430862,81.205467 130.863297,80.945114 129.106506,80.653336 
	C132.760590,64.663406 136.379181,48.828823 140.033157,32.839405 
	C157.078522,32.365345 173.756744,31.106520 190.146286,34.995911 
	C206.403214,38.853832 211.700943,50.369579 203.842072,65.145111 
	C200.847977,70.774323 196.365707,75.611992 192.546219,80.831497 
	C192.828430,80.905083 193.818939,81.163345 195.049240,81.484138 
	C193.983551,82.483078 193.049652,83.358475 191.898911,84.437149 
	C196.859192,93.627953 201.801941,102.786278 207.201965,112.791855 
	C212.896973,102.614372 218.178802,93.175308 223.729156,83.256340 
	C221.524506,82.986961 219.952850,82.794930 217.859436,82.539146 
	C218.362839,81.288765 218.700394,80.097450 219.287460,79.045372 
	C227.231567,64.808640 235.274628,50.626553 243.120407,36.336075 
	C244.509033,33.806808 246.061111,32.862404 248.949509,32.930325 
	C257.402649,33.129105 265.863495,33.001041 274.625122,33.001041 
	C276.267883,49.753365 277.868439,66.075180 279.484802,82.558182 
	C281.687927,82.719833 283.482819,82.851540 285.729614,83.016396 
	C285.983154,84.287178 286.263031,85.689705 286.612488,87.538696 
M161.946213,69.086357 
	C163.971954,68.924538 166.149277,69.181725 167.992310,68.514908 
	C172.005142,67.063065 176.261292,64.704163 175.578293,59.908577 
	C174.878891,54.997898 170.054291,54.997730 166.005829,54.893166 
	C165.711975,54.885574 165.411331,55.141582 164.777039,55.426125 
	C163.840622,59.564411 162.855591,63.917553 161.946213,69.086357 
M249.730896,83.702888 
	C250.308365,77.541107 250.885849,71.379326 251.463318,65.217537 
	C250.997238,65.169212 250.531174,65.120880 250.065109,65.072548 
	C247.764206,70.849937 245.463318,76.627319 243.108887,82.539139 
	C245.412979,82.834854 247.205811,83.064949 249.730896,83.702888 
z"/>
<path fill="#314A7D" opacity="1.000000" stroke="none" 
	d="
M497.995026,83.985085 
	C495.246735,96.150475 492.498474,108.315865 489.586456,121.206093 
	C480.909119,121.206093 472.139130,121.296280 463.377838,121.061501 
	C462.535370,121.038925 461.381042,119.110970 460.991425,117.872505 
	C457.848297,107.880966 454.868134,97.838287 451.799805,87.822998 
	C451.286713,86.148285 450.587830,84.530479 448.912933,82.932266 
	C447.376129,89.331650 445.818298,95.726067 444.308472,102.131805 
	C442.828796,108.409790 441.397949,114.699287 439.928436,121.058151 
	C430.570679,121.058151 421.621002,121.058151 412.100128,121.058151 
	C415.016541,108.359665 417.863708,95.962753 420.769012,83.312660 
	C419.281067,83.043518 417.869415,82.788177 415.666992,82.389801 
	C419.409332,66.063438 423.136505,49.803402 426.914734,33.320595 
	C437.721893,33.320595 448.316772,33.320595 459.505310,33.320595 
	C462.463165,42.724548 465.506500,52.400276 468.549835,62.076000 
	C468.898590,62.053383 469.247314,62.030766 469.596039,62.008144 
	C471.834961,52.573086 474.073883,43.138027 476.389954,33.377846 
	C485.447784,33.377846 494.536041,33.377846 504.324646,33.377846 
	C500.574585,49.732071 496.846954,65.988525 493.053467,82.532120 
	C494.647522,82.666443 495.941376,82.775459 497.619965,83.213486 
	C498.004700,83.542503 497.995026,83.985085 497.995026,83.985085 
z"/>
<path fill="#324B7E" opacity="1.000000" stroke="none" 
	d="
M498.447479,83.900955 
	C497.995026,83.985085 498.004700,83.542503 498.013947,83.321365 
	C501.346405,70.920639 506.533569,59.779804 515.018616,50.187134 
	C533.076843,29.771694 561.414734,25.445021 586.936340,39.435047 
	C588.016357,40.027077 588.927307,42.413002 588.668274,43.714813 
	C587.274475,50.720543 585.485413,57.647636 583.782959,64.811966 
	C580.771545,64.811966 577.813232,64.811966 574.853577,64.814178 
	C570.291382,55.213844 563.822998,52.309925 552.072632,54.589710 
	C538.787231,57.167316 526.496094,70.800385 526.180420,83.515862 
	C527.786194,83.676880 529.408569,83.839561 531.390808,84.038330 
	C531.390808,84.858635 531.415466,85.613068 531.387024,86.365494 
	C530.899292,99.268555 537.645203,103.423843 549.713135,102.467430 
	C555.351562,102.020569 552.836365,96.550354 554.730103,92.874496 
	C549.827820,92.874496 545.565796,92.874496 540.880615,92.874496 
	C541.400391,89.733765 541.826965,87.156006 542.305359,84.265015 
	C540.479797,83.967316 538.754211,83.685921 536.496338,83.317726 
	C537.458679,79.011787 538.385376,74.865486 539.346008,70.567230 
	C553.797241,70.567230 567.918945,70.567230 582.680359,70.567230 
	C581.802429,74.865479 580.961304,78.983910 580.056824,83.411987 
	C582.001953,83.638451 583.740601,83.840874 586.076965,84.112892 
	C583.680054,94.532310 581.347168,104.822655 578.883606,115.081604 
	C578.699280,115.849030 577.691833,116.687119 576.878662,116.995384 
	C562.061951,122.612373 546.832520,126.307152 530.959473,123.403198 
	C512.323914,119.993866 503.278351,108.065384 503.943878,89.129257 
	C504.000824,87.509010 503.951447,85.885033 503.951447,83.816826 
	C502.142212,83.816826 500.521057,83.816826 498.447479,83.900955 
z"/>
<path fill="#314B7D" opacity="1.000000" stroke="none" 
	d="
M762.033020,83.035858 
	C765.777222,66.524803 769.521423,50.013752 773.319397,33.265301 
	C794.417786,33.265301 815.338440,33.265301 836.842896,33.265301 
	C835.212585,40.518867 833.601135,47.688538 831.899902,55.257786 
	C820.627441,55.257786 809.525085,55.257786 798.188660,55.257786 
	C797.573792,57.855942 797.048706,60.074631 796.372681,62.931252 
	C806.840210,62.931252 816.866577,62.931252 827.315247,62.931252 
	C825.777832,69.853363 824.379333,76.150185 822.923584,82.704865 
	C824.894836,82.900330 826.657227,83.075081 828.419617,83.249840 
	C828.473755,83.744949 828.527832,84.240059 828.581970,84.735168 
	C825.443726,84.913155 822.307495,85.171234 819.166809,85.248184 
	C815.506104,85.337875 811.841431,85.269203 808.178528,85.269218 
	C804.693542,85.269234 801.208557,85.269218 797.285156,85.269218 
	C796.225464,89.717041 795.201233,94.016251 794.023560,98.959412 
	C805.189697,98.959412 816.043762,98.959412 827.694702,98.959412 
	C825.918518,106.899185 824.306091,114.106689 822.655090,121.486664 
	C801.418823,121.486664 780.491943,121.486664 759.091736,121.486664 
	C762.012085,108.676895 764.882446,96.086472 767.828735,83.162689 
	C766.004578,83.162689 764.373657,83.162689 762.361816,83.075333 
	C761.980957,82.987984 762.033020,83.035858 762.033020,83.035858 
z"/>
<path fill="#314B7D" opacity="1.000000" stroke="none" 
	d="
M297.614319,100.056328 
	C297.192932,94.198082 296.866852,88.756081 296.523865,83.031746 
	C294.859985,82.914772 293.091309,82.790428 290.649048,82.618736 
	C293.882111,63.979362 301.815094,48.456333 318.304352,39.025490 
	C337.037140,28.311468 356.337097,28.881403 375.861847,39.093822 
	C374.073334,46.985794 372.469116,54.582176 370.583801,62.108135 
	C369.907257,64.808640 362.156372,65.268318 359.186829,62.911804 
	C357.624268,61.671825 356.209015,60.235935 354.593323,59.074844 
	C345.609833,52.618927 336.146423,53.521378 328.588318,61.537556 
	C323.151062,67.304337 320.257111,74.230873 319.206757,82.446648 
	C321.398895,82.688133 323.435699,82.912498 325.295319,83.117355 
	C325.553772,83.447128 325.733612,83.570160 325.748444,83.710594 
	C327.276825,98.198532 333.968292,102.384476 347.798798,97.320900 
	C351.062286,96.126083 354.061798,94.214630 357.318817,92.996780 
	C361.342072,91.492416 365.507416,90.368027 369.611328,89.079453 
	C369.959839,89.549484 370.308319,90.019516 370.656830,90.489555 
	C368.950104,98.000099 367.285187,105.520752 365.477356,113.006882 
	C365.278137,113.831924 364.399170,114.729980 363.601929,115.138367 
	C347.752563,123.257950 331.375549,126.811989 314.136292,119.910782 
	C305.350708,116.393745 300.084259,109.573578 297.614319,100.056328 
z"/>
<path fill="#314B7D" opacity="1.000000" stroke="none" 
	d="
M761.953247,82.966064 
	C762.963379,86.524185 760.792664,86.730209 758.132263,86.712082 
	C749.328613,86.652092 740.524353,86.689445 731.277283,86.689445 
	C728.859619,97.022354 726.307739,107.124611 724.214172,117.320976 
	C723.499756,120.800591 722.201660,121.937714 718.653992,121.819199 
	C710.528259,121.547745 702.387268,121.733330 693.412170,121.733330 
	C696.412170,108.635170 699.285522,96.089935 702.208069,83.329933 
	C700.323425,83.126740 698.706299,82.952393 696.411926,82.705025 
	C700.227295,66.119629 704.000244,49.718864 707.803528,33.186394 
	C728.723633,33.186394 749.313904,33.186394 770.653442,33.186394 
	C768.991272,40.543266 767.375305,47.695560 765.648010,55.340588 
	C756.839966,55.340588 748.223022,55.340393 739.606018,55.340645 
	C731.648987,55.340878 731.648987,55.341087 730.987427,63.929222 
	C740.756958,63.929222 750.508057,63.929222 760.858154,63.929222 
	C759.469788,70.347961 758.191711,76.256821 756.798706,82.696915 
	C758.395142,82.804047 759.783447,82.897217 761.602417,83.013123 
	C762.033020,83.035858 761.980957,82.987984 761.953247,82.966064 
z"/>
<path fill="#314A7D" opacity="1.000000" stroke="none" 
	d="
M624.265381,98.962662 
	C634.379700,98.966080 644.021790,98.966080 654.155884,98.966080 
	C652.635986,105.845604 651.317688,112.312378 649.684753,118.698730 
	C649.421204,119.729935 647.763672,121.127640 646.741577,121.135109 
	C626.952576,121.279617 607.162354,121.242218 586.691833,121.242218 
	C589.648682,108.311646 592.479126,95.933907 595.385986,83.221794 
	C593.596252,82.968941 592.174011,82.767998 590.196533,82.488609 
	C593.935791,66.102425 597.649109,49.829689 601.416138,33.321800 
	C611.310181,33.321800 621.043701,33.321800 631.156128,33.321800 
	C627.369263,49.750782 623.644165,65.911728 619.852051,82.363533 
	C621.708374,82.681236 623.258240,82.946480 625.106506,83.262794 
	C624.080872,87.473175 622.946350,91.451965 622.239014,95.505318 
	C622.059326,96.534866 623.238342,97.801529 624.265381,98.962662 
z"/>
<path fill="#314B7E" opacity="1.000000" stroke="none" 
	d="
M692.058655,50.084908 
	C689.555298,61.153793 687.116272,71.809494 684.620850,82.711266 
	C686.675354,82.915352 688.287476,83.075500 690.412537,83.286606 
	C687.469116,96.118774 684.587097,108.683388 681.661011,121.440002 
	C671.716370,121.440002 661.993042,121.440002 651.718628,121.440002 
	C654.634338,108.621674 657.460938,96.195160 660.360657,83.447090 
	C658.385803,83.150917 656.678345,82.894852 654.574036,82.579269 
	C658.402405,66.075554 662.188477,49.754066 666.022339,33.226616 
	C675.934326,33.226616 685.690735,33.226616 695.926758,33.226616 
	C694.636292,38.805679 693.379639,44.238701 692.058655,50.084908 
z"/>
<path fill="#314B7E" opacity="1.000000" stroke="none" 
	d="
M376.851257,88.818268 
	C377.269318,86.790230 377.607666,85.170334 377.996490,83.308739 
	C376.088379,83.113693 374.312744,82.932190 372.187164,82.714912 
	C375.842804,66.877007 379.415558,51.205811 383.167938,35.577751 
	C383.416412,34.542912 385.017517,33.112255 386.015961,33.090698 
	C394.990021,32.896919 403.970001,32.977501 413.558105,32.977501 
	C411.605347,41.677551 409.777924,49.908669 407.906921,58.129868 
	C406.063080,66.231857 404.175049,74.323784 402.257568,82.631744 
	C404.305084,82.872482 406.062134,83.079071 408.040131,83.311638 
	C405.293213,95.348778 402.650391,107.186096 399.803741,118.974182 
	C399.543488,120.051956 397.995697,121.581680 397.016357,121.603905 
	C388.051758,121.807350 379.080627,121.723564 369.264740,121.723564 
	C371.859741,110.489738 374.315674,99.858070 376.851257,88.818268 
z"/>
<path fill="#2A4574" opacity="1.000000" stroke="none" 
	d="
M41.738564,92.662422 
	C42.780571,90.659073 43.822575,88.655716 45.253891,86.441147 
	C46.095589,85.842560 46.547974,85.455170 47.000359,85.067787 
	C47.797092,85.340744 48.593826,85.613701 49.728874,86.320343 
	C50.353767,87.083862 50.640343,87.413689 50.926922,87.743523 
	C50.964134,87.247284 51.001347,86.751053 51.038563,86.254814 
	C51.801998,85.836243 52.565434,85.417679 54.103912,85.013016 
	C57.594696,84.923477 60.310448,84.820045 63.026199,84.716614 
	C63.309570,84.876144 63.722183,84.963799 63.856873,85.206001 
	C65.793243,88.688034 67.763985,92.106369 72.702049,92.683624 
	C73.025398,92.949425 73.148239,93.014381 73.148239,93.014381 
	C75.361916,95.196526 77.628136,97.329018 79.761696,99.586868 
	C80.542839,100.413506 81.235985,101.464058 81.583496,102.537369 
	C84.279938,110.865402 87.176918,119.146080 89.410332,127.600311 
	C90.917015,133.303635 85.761963,139.005920 79.850212,139.006821 
	C64.422836,139.009155 48.995453,139.007614 32.401798,139.007614 
	C33.303474,131.135941 34.160789,123.651550 35.018105,116.167160 
	C35.502766,116.348976 35.987427,116.530792 36.730461,117.285019 
	C39.058353,119.873840 41.127876,121.890244 43.573593,123.950302 
	C45.556431,124.685394 47.166050,125.945580 48.769051,125.937210 
	C51.278557,125.924110 54.990532,127.853371 56.032307,123.176544 
	C60.973629,123.950294 63.950134,121.796249 65.308792,116.996925 
	C66.329109,115.619003 67.020317,114.291771 67.838013,112.605392 
	C67.929398,111.237045 67.894295,110.227852 67.908646,108.874146 
	C67.228851,107.869354 66.499603,107.209053 65.770363,106.548759 
	C65.846176,107.705994 65.921997,108.863220 65.636703,110.075134 
	C65.158905,110.753616 65.042221,111.377411 64.958740,111.997940 
	C64.991936,111.994659 64.956169,111.938339 64.602486,111.935425 
	C64.148598,112.617935 64.048401,113.303368 63.679329,114.036942 
	C63.280983,115.047279 63.151512,116.009468 63.032036,116.981506 
	C63.042034,116.991364 63.055340,116.966171 62.636971,116.899689 
	C61.807053,117.567459 61.395496,118.301704 60.997520,119.024345 
	C61.011105,119.012733 61.033802,118.985130 60.746361,118.685661 
	C59.860477,118.923447 59.262035,119.460693 58.346237,120.048584 
	C57.020592,121.030090 56.012299,121.960976 54.698471,122.962936 
	C53.898533,122.769264 53.404129,122.504509 52.932911,121.912308 
	C52.699883,120.989212 52.443668,120.393578 52.187454,119.797943 
	C51.791580,120.544365 51.395710,121.290787 50.638271,122.100227 
	C47.965080,121.409752 45.899254,119.041862 42.808121,121.031952 
	C41.256641,119.904831 40.059624,118.825882 38.785423,117.488113 
	C38.451054,117.143677 38.193867,117.058060 37.929676,117.006149 
	C37.922672,117.039864 37.969852,117.090027 37.969852,117.090027 
	C37.422298,113.416077 36.935940,109.731697 36.312668,106.070641 
	C35.407494,100.753754 37.217525,96.434296 41.418549,93.056313 
	C42.321899,93.712959 42.768967,94.080482 43.216034,94.447998 
	C43.373066,94.209587 43.530094,93.971184 43.687122,93.732773 
	C43.037601,93.375992 42.388084,93.019203 41.738564,92.662422 
M66.479095,100.458603 
	C67.155922,100.761017 67.832756,101.063423 69.133240,101.644478 
	C68.862869,98.739128 68.647690,96.426788 68.432503,94.114449 
	C67.829674,94.098755 67.226852,94.083061 66.624023,94.067368 
	C66.469276,95.962822 66.314522,97.858269 66.479095,100.458603 
M56.867054,102.048225 
	C57.019802,103.302055 57.172550,104.555885 57.325298,105.809715 
	C57.581886,105.769882 57.838470,105.730057 58.095055,105.690224 
	C57.949772,103.634636 57.804485,101.579041 57.659203,99.523453 
	C57.264950,99.563904 56.870697,99.604362 56.476444,99.644814 
	C56.533806,100.217911 56.591167,100.791008 56.867054,102.048225 
M43.388485,98.224442 
	C43.865173,98.099022 44.341866,97.973610 44.818554,97.848198 
	C44.646404,97.476097 44.474251,97.103989 44.302101,96.731888 
	C43.974068,97.048431 43.646034,97.364983 43.388485,98.224442 
M67.988800,104.887627 
	C68.507492,104.671883 69.034843,104.472252 69.527321,104.207718 
	C69.563965,104.188034 69.350594,103.702888 69.253448,103.434128 
	C68.684319,103.795578 68.115181,104.157021 67.988800,104.887627 
M50.780838,116.585686 
	C51.136753,116.167137 51.510639,115.760857 51.818504,115.309540 
	C51.846745,115.268135 51.452995,114.938889 51.255203,114.743301 
	C50.962505,115.236206 50.669807,115.729118 50.780838,116.585686 
M55.407661,110.196976 
	C55.791271,110.201363 56.174877,110.205757 56.558487,110.210152 
	C56.560062,110.050995 56.572433,109.753517 56.561653,109.752670 
	C56.180065,109.722893 55.796310,109.720940 55.407661,110.196976 
M44.715740,113.948250 
	C44.363712,114.040184 44.011684,114.132118 43.659660,114.224052 
	C43.991474,114.274460 44.323284,114.324875 44.715740,113.948250 
M44.824680,101.725891 
	C44.974289,101.617500 45.123894,101.509109 45.273502,101.400719 
	C45.066574,101.421936 44.859642,101.443161 44.824680,101.725891 
M44.832390,117.254608 
	C44.885094,117.415024 44.937798,117.575447 44.990501,117.735863 
	C45.042236,117.574585 45.093975,117.413307 44.832390,117.254608 
M50.524090,110.647560 
	C50.471478,110.848793 50.418865,111.050034 50.366253,111.251274 
	C50.494934,111.121964 50.623611,110.992653 50.524090,110.647560 
M56.475903,97.352188 
	C56.528492,97.151093 56.581081,96.949997 56.633671,96.748901 
	C56.505074,96.878113 56.376480,97.007332 56.475903,97.352188 
M42.580570,108.516068 
	C42.580570,108.516068 42.477421,108.575836 42.580570,108.516068 
z"/>
<path fill="#2D4775" opacity="1.000000" stroke="none" 
	d="
M92.855774,63.027760 
	C94.656654,74.593269 92.726051,78.232735 83.599792,81.022247 
	C76.524834,83.184769 76.135429,83.009117 72.169991,75.475586 
	C76.261200,74.190536 80.265739,72.932701 84.535004,71.591721 
	C81.245445,65.533241 80.962479,58.086353 76.429741,53.248226 
	C70.600815,56.235241 65.624840,59.058289 59.784485,57.573898 
	C58.159069,57.160786 57.070312,54.636196 55.268890,52.536602 
	C63.032650,50.639416 65.577393,46.042240 66.309341,39.599911 
	C66.788094,35.386116 68.280815,31.274530 69.493279,27.168514 
	C69.724770,26.384565 70.662674,25.635780 71.457596,25.223404 
	C74.086517,23.859629 83.888168,28.270294 84.959335,31.089890 
	C88.831657,41.282860 91.792656,51.694378 92.855774,63.027760 
z"/>
<path fill="#2F4877" opacity="1.000000" stroke="none" 
	d="
M110.948044,139.017838 
	C106.168526,139.017883 101.843781,139.017883 97.061813,139.017883 
	C97.272728,137.865417 97.540268,137.123581 97.522255,136.388733 
	C97.369843,130.171555 99.572449,126.174324 106.190369,124.356812 
	C110.767326,123.099815 112.378761,118.884277 110.298347,114.272461 
	C107.645126,108.390869 104.738976,102.618538 101.794662,96.874557 
	C99.236259,91.883430 96.473068,86.997292 93.616722,81.725822 
	C103.446793,83.710854 107.870102,91.357094 114.613480,106.110512 
	C119.780800,117.415794 116.846123,127.487297 115.565971,138.704300 
	C114.244293,138.803818 112.823555,138.910797 110.948044,139.017838 
z"/>
<path fill="#2A4574" opacity="1.000000" stroke="none" 
	d="
M43.148209,41.016632 
	C43.283901,41.118286 43.419598,41.219940 43.259388,41.675888 
	C41.973530,42.962418 40.983574,43.894650 39.637726,44.866737 
	C39.059727,45.061771 38.837616,45.216949 38.615509,45.372124 
	C39.598026,45.592026 40.580540,45.811928 41.822475,46.035736 
	C42.427044,46.060661 42.772198,46.081684 43.117348,46.102707 
	C44.474331,47.857300 45.831314,49.611897 46.512890,51.664986 
	C45.227207,52.053238 44.616932,52.142998 44.006657,52.232758 
	C44.080761,52.469261 44.154865,52.705765 44.228966,52.942265 
	C45.002213,52.625206 45.775455,52.308147 46.548698,51.991089 
	C47.319180,52.000336 48.089657,52.009590 48.942608,52.684135 
	C49.012985,53.552109 49.000893,53.754791 48.730938,53.970600 
	C48.301250,53.993938 48.129421,54.004154 47.762032,54.110863 
	C47.318199,54.381241 47.154579,54.614494 47.037994,55.074532 
	C47.000389,55.241943 46.974392,55.584118 46.974392,55.584118 
	C45.438320,56.794502 43.902248,58.004887 42.366177,59.215271 
	C48.197231,60.122025 49.627953,62.833221 48.028145,67.168861 
	C47.643238,66.756523 47.505245,66.654640 47.367252,66.552750 
	C47.395576,66.780830 47.423901,67.008911 47.452225,67.236992 
	C47.452225,67.236992 47.202965,67.634605 47.121010,67.821457 
	C47.039055,68.008301 47.016891,67.944679 46.676147,67.919785 
	C46.496216,68.888229 46.657028,69.881561 47.065792,70.924850 
	C47.480995,70.996284 47.648247,71.017754 47.836617,71.418457 
	C47.892647,72.048500 47.927559,72.299294 47.996834,72.535355 
	C48.031197,72.520607 48.011341,72.448509 47.704182,72.590744 
	C47.203140,73.138214 47.009262,73.543442 46.589821,73.983688 
	C46.216930,74.401222 46.069599,74.783752 45.929184,75.369064 
	C45.936096,75.571861 45.990334,75.974037 45.984497,76.226402 
	C45.929550,76.639572 45.880440,76.800385 45.489937,76.953194 
	C44.921196,76.956841 44.693840,76.968483 44.423553,76.722237 
	C43.242504,75.899796 42.104385,75.335243 40.992485,74.436249 
	C40.346676,73.404739 39.674656,72.707657 39.002487,71.759949 
	C39.002930,71.342308 39.003525,71.175301 38.967018,70.660965 
	C37.972183,67.353661 36.110580,67.814377 34.043007,69.016609 
	C34.035046,69.008766 34.013290,69.003708 33.789833,68.904846 
	C33.267200,68.630966 33.077084,68.374977 32.973396,67.731232 
	C32.616814,66.943130 32.282856,66.461807 31.766294,65.629623 
	C29.740829,65.198952 27.897972,65.119141 25.597351,65.093216 
	C24.038052,65.712357 22.936512,66.277603 21.834974,66.842850 
	C22.228828,64.555557 22.622683,62.268261 23.409264,59.430832 
	C23.581921,57.919689 23.361853,56.958683 23.141787,55.997677 
	C23.056707,55.829720 22.971628,55.661758 23.300650,55.213894 
	C23.846037,54.303284 23.977322,53.672577 24.108608,53.041874 
	C25.389864,49.110981 26.686689,45.185081 27.948755,41.248039 
	C29.879288,35.225708 35.149403,37.571716 39.611435,37.256092 
	C41.093761,38.846989 42.120983,39.931808 43.148209,41.016632 
M39.729214,55.522675 
	C39.134407,56.011566 38.539600,56.500458 37.418747,57.530605 
	C36.676033,60.215038 36.714149,62.652264 39.618095,65.370346 
	C39.365818,61.855072 39.196884,59.501144 39.503311,57.079357 
	C39.503311,57.079357 39.983425,57.067036 40.328560,57.470440 
	C40.725983,57.416298 41.123409,57.362152 41.520832,57.308010 
	C41.054546,56.864807 40.588257,56.421604 39.729214,55.522675 
M35.479317,45.644962 
	C33.938179,45.090134 32.397038,44.535305 30.855900,43.980476 
	C30.771784,44.618668 30.687668,45.256859 30.603554,45.895050 
	C32.003334,45.895050 33.403118,45.895050 35.479317,45.644962 
M34.626564,42.875755 
	C34.707001,42.684490 34.810665,42.497379 34.846321,42.298100 
	C34.852692,42.262493 34.575417,42.118011 34.432610,42.123047 
	C33.302021,42.162918 32.172279,42.226837 31.042278,42.283363 
	C31.057264,42.499111 31.072250,42.714863 31.087236,42.930611 
	C32.051418,42.930611 33.015602,42.930611 34.626564,42.875755 
M29.925034,58.184422 
	C30.211285,57.804176 30.497538,57.423931 30.783785,57.043686 
	C30.413698,56.869614 30.043610,56.695545 29.673523,56.521473 
	C29.625708,56.948856 29.577892,57.376244 29.925034,58.184422 
M40.341824,53.221371 
	C40.710602,53.269142 41.079376,53.316917 41.448154,53.364693 
	C41.450775,53.102032 41.453396,52.839375 41.456020,52.576714 
	C41.086857,52.618332 40.717690,52.659954 40.341824,53.221371 
M31.199736,53.597458 
	C31.204084,53.210335 31.208431,52.823208 31.212780,52.436085 
	C31.052160,52.434525 30.751955,52.422108 30.751108,52.432964 
	C30.721161,52.818096 30.719267,53.205406 31.199736,53.597458 
M44.420307,64.484962 
	C44.420307,64.484962 44.522297,64.425903 44.420307,64.484962 
M39.483898,41.582825 
	C39.483898,41.582825 39.424217,41.479542 39.483898,41.582825 
M43.482925,66.586952 
	C43.482925,66.586952 43.416924,66.476898 43.482925,66.586952 
z"/>
<path fill="#2F4877" opacity="1.000000" stroke="none" 
	d="
M18.797424,86.999008 
	C19.239494,86.329437 19.681566,85.659866 20.753716,85.075798 
	C22.005020,85.990700 22.626245,86.820107 23.318869,87.744835 
	C25.916920,84.459961 24.221252,83.829086 21.171314,83.989357 
	C21.680683,79.577499 22.190052,75.165642 23.177696,70.367432 
	C24.497147,69.117149 25.338322,68.253220 26.264927,67.522324 
	C26.514164,67.815750 26.702810,67.937912 27.301746,68.052948 
	C28.455038,68.043060 29.222881,68.002060 30.246529,68.053375 
	C30.679510,68.107239 30.856688,68.068787 31.014545,68.015640 
	C30.995228,68.000946 30.955645,67.972824 31.084843,68.336670 
	C32.147121,68.801575 33.080208,68.902641 34.013290,69.003708 
	C34.013290,69.003708 34.035046,69.008766 34.012386,69.120972 
	C33.989727,69.233185 33.977455,69.450233 33.907730,69.848572 
	C34.235676,70.511070 34.633343,70.775215 35.029327,71.009720 
	C35.027637,70.980072 34.968472,70.975044 34.801529,71.254776 
	C34.988453,72.047607 35.342323,72.560715 35.824001,73.378716 
	C36.312588,73.800430 36.673363,73.917244 37.017693,74.017166 
	C37.001251,74.000267 36.968613,73.966248 36.861656,74.308578 
	C37.504322,75.453812 38.253944,76.256714 39.005188,77.034790 
	C39.006813,77.009979 38.960644,77.027130 38.878334,77.378052 
	C38.613400,79.504875 38.430771,81.280785 38.056511,83.325974 
	C37.244453,83.739822 36.624027,83.884399 36.111774,83.759834 
	C36.298458,82.924454 36.376965,82.358223 36.455475,81.791985 
	C35.886784,81.950020 34.855347,82.055664 34.830479,82.275276 
	C34.729313,83.168671 34.936729,84.097008 35.116222,85.372452 
	C35.150116,87.531921 35.098175,89.331406 34.836784,90.831787 
	C33.409588,88.780457 32.191837,87.028221 31.035183,85.363892 
	C29.972630,85.793625 28.490158,86.393181 27.043606,86.641815 
	C28.603653,84.806740 30.127783,83.322571 31.828344,81.666603 
	C26.054232,81.516586 25.358709,82.348297 26.993919,87.376328 
	C28.178526,89.367493 29.363117,90.985970 30.843786,93.008980 
	C30.521664,93.837547 29.753551,95.813293 28.985439,97.789047 
	C22.833185,98.250694 20.654934,96.056015 20.830988,89.847221 
	C20.858746,88.868370 20.060194,87.866096 19.246559,86.916092 
	C18.849421,86.957527 18.797422,86.999008 18.797424,86.999008 
z"/>
<path fill="#2E4876" opacity="1.000000" stroke="none" 
	d="
M47.963642,30.978073 
	C46.926498,31.611675 45.889355,32.245277 44.789742,32.917042 
	C42.964912,26.599579 45.118587,20.079540 49.884399,16.991369 
	C54.247501,14.164156 58.427494,14.388371 62.275120,17.656027 
	C66.312103,21.084503 68.799194,28.401131 66.393562,32.030972 
	C63.737362,36.038876 59.659878,38.104561 54.784225,36.931950 
	C54.511639,32.596333 54.244144,28.341644 53.976646,24.086956 
	C53.318199,23.919353 52.659748,23.751749 52.001301,23.584146 
	C50.604733,25.812107 49.208164,28.040068 47.904503,30.641041 
	C47.997410,31.014055 47.963642,30.978075 47.963642,30.978073 
z"/>
<path fill="#2F4877" opacity="1.000000" stroke="none" 
	d="
M92.193085,84.899673 
	C94.154785,92.365852 96.116486,99.832031 98.171188,107.652138 
	C96.167274,107.780930 94.426163,107.892830 92.335899,108.027176 
	C89.790802,102.298492 87.171104,96.647293 84.817101,90.887489 
	C84.369156,89.791451 84.972160,88.265892 85.685150,86.960785 
	C86.472824,86.705147 86.665627,86.427238 86.858429,86.149323 
	C85.519669,85.948128 84.180916,85.746925 82.579353,85.506233 
	C85.493912,81.872910 89.236168,80.589378 90.709595,82.764641 
	C90.007324,83.788857 89.783081,84.296013 89.558830,84.803177 
	C90.436913,84.835350 91.315002,84.867516 92.193085,84.899673 
z"/>
<path fill="#354E7B" opacity="1.000000" stroke="none" 
	d="
M104.501358,112.733459 
	C100.950378,107.681259 98.190704,102.720604 97.913872,96.819054 
	C98.401344,96.596802 98.888817,96.374550 99.376289,96.152298 
	C102.425743,102.838730 105.571564,109.484489 108.428085,116.252350 
	C108.894386,117.357140 108.494240,119.939835 107.796844,120.245003 
	C102.873734,122.399330 97.791771,124.208351 92.682144,125.889412 
	C92.207268,126.045647 90.786362,124.675919 90.501343,123.790474 
	C89.820427,121.675095 89.555687,119.425751 89.051758,116.869675 
	C92.619514,118.326500 95.639267,120.143257 98.887672,120.764496 
	C105.653198,122.058372 107.382904,119.553215 104.501358,112.733459 
z"/>
<path fill="#354E7B" opacity="1.000000" stroke="none" 
	d="
M53.003399,81.158058 
	C52.694538,79.685684 52.060776,78.197548 52.131336,76.743591 
	C52.496300,69.223785 53.041420,61.712734 53.756699,53.934078 
	C55.875191,62.861202 61.305088,70.874672 60.741425,81.036522 
	C59.523796,81.346664 58.714550,81.293716 57.499199,81.182053 
	C55.729866,81.134911 54.366631,81.146484 53.003399,81.158058 
z"/>
<path fill="#324C79" opacity="1.000000" stroke="none" 
	d="
M78.637039,62.367928 
	C81.389191,69.947334 81.389191,69.947334 72.079369,72.496826 
	C70.266144,66.434799 71.197456,62.463062 75.985161,57.231861 
	C76.874695,58.961063 77.664696,60.496788 78.637039,62.367928 
z"/>
<path fill="#3A527E" opacity="1.000000" stroke="none" 
	d="
M51.231350,41.971786 
	C54.041691,36.998890 59.089027,40.955544 62.902470,38.410625 
	C62.842751,43.318249 63.448166,47.894722 57.826340,49.067101 
	C56.773094,49.286743 55.318310,47.580929 54.339500,46.354893 
	C55.158886,44.615242 55.687595,43.284355 56.469215,41.316845 
	C54.074905,41.616230 52.653130,41.794010 51.231350,41.971786 
z"/>
<path fill="#3A527E" opacity="1.000000" stroke="none" 
	d="
M27.693581,121.011063 
	C29.350105,116.201500 30.978052,111.761948 32.605999,107.322395 
	C33.145699,107.463890 33.685394,107.605392 34.225094,107.746887 
	C33.204205,113.732101 32.183315,119.717316 31.162426,125.702522 
	C30.679031,125.831390 30.195637,125.960258 29.712244,126.089127 
	C29.029829,124.519768 28.347416,122.950417 27.693581,121.011063 
z"/>
<path fill="#3A527E" opacity="1.000000" stroke="none" 
	d="
M47.975304,31.000557 
	C49.244476,30.311972 50.535755,29.636883 52.398701,28.662924 
	C53.134548,34.028427 51.340084,38.713215 47.713615,43.128788 
	C44.636486,40.135216 44.370796,37.363663 47.169708,34.343529 
	C47.910522,33.544163 48.254440,32.376968 48.372120,31.178373 
	C47.963642,30.978075 47.997410,31.014055 47.975304,31.000557 
z"/>
<path fill="#354E7B" opacity="1.000000" stroke="none" 
	d="
M91.045219,131.990417 
	C92.316795,130.220932 93.502998,128.851120 94.689201,127.481293 
	C95.231712,127.828560 95.774231,128.175827 96.316742,128.523102 
	C95.834030,131.855698 95.351318,135.188293 94.835976,138.746185 
	C92.737740,138.746185 90.994293,138.746185 88.798485,138.746185 
	C89.545425,136.549591 90.252640,134.469833 91.045219,131.990417 
z"/>
<path fill="#354E7B" opacity="1.000000" stroke="none" 
	d="
M98.638893,118.600510 
	C96.074478,117.288765 93.897079,116.078346 91.397949,114.689079 
	C96.924332,110.240250 99.735489,111.112000 103.780418,118.290131 
	C101.958298,118.447914 100.492104,118.574875 98.638893,118.600510 
z"/>
<path fill="#3A527E" opacity="1.000000" stroke="none" 
	d="
M27.007687,86.992737 
	C28.490158,86.393181 29.972630,85.793625 31.035183,85.363892 
	C32.191837,87.028221 33.409588,88.780457 34.856022,91.137772 
	C35.028625,92.146019 34.972542,92.549194 34.916458,92.952370 
	C34.309002,93.470734 33.517563,93.888550 33.159706,94.543335 
	C32.926682,94.969696 33.313320,95.743324 33.454521,96.353943 
	C33.470860,96.424606 33.693352,96.447594 33.820267,96.492683 
	C33.329868,96.743675 32.860641,97.057465 32.344311,97.231544 
	C31.481045,97.522606 30.587696,97.724434 29.346226,97.876434 
	C29.753551,95.813293 30.521664,93.837547 30.843786,93.008980 
	C29.363117,90.985970 28.178526,89.367493 26.997149,87.374352 
	C27.000364,86.999695 27.007689,86.992737 27.007687,86.992737 
z"/>
<path fill="#3A527E" opacity="1.000000" stroke="none" 
	d="
M87.159790,101.798370 
	C88.260216,105.003456 92.058136,107.865761 87.102074,111.079155 
	C85.559204,106.408775 82.870651,102.278801 83.207497,97.431717 
	C83.640823,97.280190 84.074150,97.128670 84.507477,96.977142 
	C85.338379,98.472733 86.169273,99.968315 87.159790,101.798370 
z"/>
<path fill="#354E7B" opacity="1.000000" stroke="none" 
	d="
M23.770847,39.950737 
	C22.703049,36.278645 21.838964,32.909222 20.974880,29.539801 
	C21.528564,29.339558 22.082249,29.139315 22.635931,28.939072 
	C24.382477,31.241133 26.129023,33.543194 28.371748,36.499252 
	C26.924597,37.734776 25.449579,38.994095 23.770847,39.950737 
z"/>
<path fill="#B6BDCD" opacity="1.000000" stroke="none" 
	d="
M73.581619,92.967896 
	C73.148239,93.014381 73.025398,92.949425 73.011642,92.916702 
	C74.022530,90.406311 75.047165,87.928642 76.202850,85.134079 
	C78.348770,86.310616 80.096039,87.268593 83.172134,88.955124 
	C79.364830,90.604210 76.689911,91.762810 73.581619,92.967896 
z"/>
<path fill="#3A527E" opacity="1.000000" stroke="none" 
	d="
M65.093353,82.232635 
	C63.470078,78.071083 67.233925,78.893448 68.643272,78.307030 
	C69.574951,77.919357 71.323914,79.495834 73.956497,80.822746 
	C70.044090,82.260437 68.503868,86.335411 65.093353,82.232635 
z"/>
<path fill="#D0D5DE" opacity="1.000000" stroke="none" 
	d="
M35.254463,93.008438 
	C34.972542,92.549194 35.028625,92.146019 35.065472,91.436859 
	C35.098175,89.331406 35.150116,87.531921 35.344147,85.286087 
	C35.749168,84.627220 35.921619,84.356972 36.003597,84.028976 
	C36.624027,83.884399 37.244453,83.739822 38.268509,83.328911 
	C38.672134,83.062576 39.094120,83.020073 39.070812,83.411545 
	C39.069019,84.844917 39.090534,85.886826 39.112049,86.928726 
	C38.918388,86.943977 38.724724,86.959221 38.190086,86.727798 
	C37.671825,86.231148 37.494537,85.981163 37.317249,85.731186 
	C37.208454,86.179649 37.099655,86.628113 36.990856,87.076576 
	C37.530376,88.949371 38.069897,90.822159 38.609417,92.694962 
	C37.603771,92.818138 36.598122,92.941322 35.254463,93.008438 
z"/>
<path fill="#3A527E" opacity="1.000000" stroke="none" 
	d="
M45.990334,75.974037 
	C45.990334,75.974037 45.936096,75.571861 46.087296,75.333008 
	C46.238499,75.094162 46.559921,75.066772 47.028389,75.089569 
	C47.668354,74.224411 47.839848,73.336456 48.011341,72.448509 
	C48.011341,72.448509 48.031197,72.520607 48.326469,72.365128 
	C48.784855,71.496033 48.947968,70.782425 49.111084,70.068810 
	C50.736988,74.066605 51.439205,77.851585 46.423786,79.989105 
	C46.197384,79.380386 46.280239,79.173096 46.526924,78.834244 
	C46.877716,78.475510 46.970184,78.214813 46.974525,77.592369 
	C46.650707,76.834122 46.320518,76.404076 45.990334,75.974037 
z"/>
<path fill="#D0D5DE" opacity="1.000000" stroke="none" 
	d="
M46.363094,78.965813 
	C46.280239,79.173096 46.197384,79.380386 46.017620,79.908333 
	C45.528206,80.491211 45.135704,80.753441 44.345680,80.767632 
	C43.328068,80.766266 42.707973,81.012932 41.993572,80.982361 
	C41.613937,79.978241 41.328609,79.251343 41.161629,78.063705 
	C41.175407,76.658867 41.070839,75.714775 40.966270,74.770683 
	C42.104385,75.335243 43.242504,75.899796 44.257736,76.928360 
	C44.765236,77.603073 45.395626,77.813789 46.007660,78.007111 
	C45.989311,77.989716 45.952847,77.954697 46.055912,78.207275 
	C46.227016,78.628502 46.295055,78.797157 46.363094,78.965813 
z"/>
<path fill="#3A527E" opacity="1.000000" stroke="none" 
	d="
M43.197395,123.906647 
	C41.127876,121.890244 39.058353,119.873840 36.988094,117.499130 
	C37.148041,117.066856 37.308731,116.992897 37.719635,117.004478 
	C37.969852,117.090027 37.922672,117.039864 38.052723,117.178673 
	C38.314529,117.610794 38.541142,117.753944 38.862606,117.746925 
	C40.059624,118.825882 41.256641,119.904831 42.804733,121.387314 
	C43.169670,122.496109 43.183533,123.201378 43.197395,123.906647 
z"/>
<path fill="#E8E9ED" opacity="1.000000" stroke="none" 
	d="
M53.128567,81.357399 
	C54.366631,81.146484 55.729866,81.134911 57.476456,81.564194 
	C58.920853,82.659859 59.981892,83.314667 61.368149,83.996140 
	C62.128151,84.013359 62.562931,84.003937 62.997715,83.994507 
	C62.997715,83.994499 63.038303,84.354523 63.032249,84.535568 
	C60.310448,84.820045 57.594696,84.923477 54.433163,84.942871 
	C53.987377,84.858826 54.006901,84.371765 54.410858,84.176949 
	C55.499794,83.581184 56.184769,83.180244 56.869743,82.779297 
	C55.932415,82.525253 54.995090,82.271210 54.057762,82.017174 
	C53.734985,81.959320 53.466976,81.805840 53.128567,81.357399 
z"/>
<path fill="#657799" opacity="1.000000" stroke="none" 
	d="
M26.179499,67.389297 
	C25.338322,68.253220 24.497147,69.117149 23.295547,69.993492 
	C22.432024,68.986801 21.928923,67.967697 21.630398,66.895721 
	C22.936512,66.277603 24.038052,65.712357 25.527927,65.366409 
	C25.939707,65.772163 25.963152,65.958611 26.034100,66.456223 
	C26.114231,66.974686 26.146864,67.181992 26.179499,67.389297 
z"/>
<path fill="#4B6189" opacity="1.000000" stroke="none" 
	d="
M51.304150,42.256348 
	C52.653130,41.794010 54.074905,41.616230 56.469215,41.316845 
	C55.687595,43.284355 55.158886,44.615242 54.259712,46.017700 
	C53.889252,46.089272 53.935524,46.042473 53.920708,45.764320 
	C53.347965,44.999088 52.790031,44.512005 52.232101,44.024921 
	C51.947052,43.530251 51.661999,43.035576 51.304150,42.256348 
z"/>
<path fill="#B6BDCD" opacity="1.000000" stroke="none" 
	d="
M41.043285,78.524452 
	C41.328609,79.251343 41.613937,79.978241 42.017265,81.121284 
	C42.135262,81.537437 42.039097,81.803520 42.039097,81.803520 
	C42.061985,81.998436 42.084877,82.193352 41.695808,82.671204 
	C40.553936,82.976120 39.824028,82.998093 39.094120,83.020073 
	C39.094120,83.020073 38.672134,83.062576 38.460140,83.059631 
	C38.430771,81.280785 38.613400,79.504875 39.209427,77.428528 
	C40.096313,77.593552 40.569798,78.058998 41.043285,78.524452 
z"/>
<path fill="#324C79" opacity="1.000000" stroke="none" 
	d="
M39.993614,44.826881 
	C40.983574,43.894650 41.973530,42.962418 43.317139,41.923565 
	C43.521061,42.650204 43.371334,43.483456 43.122414,44.903526 
	C43.039806,45.696404 43.056385,45.902473 43.072968,46.108540 
	C43.072968,46.108540 43.088924,46.062134 43.103134,46.082420 
	C42.772198,46.081684 42.427044,46.060661 41.612999,45.774189 
	C40.760609,45.281452 40.377110,45.054169 39.993614,44.826881 
z"/>
<path fill="#3A527E" opacity="1.000000" stroke="none" 
	d="
M21.079441,84.219101 
	C24.221252,83.829086 25.916920,84.459961 23.318869,87.744835 
	C22.626245,86.820107 22.005020,85.990700 21.118835,85.043304 
	C20.853874,84.925316 20.987568,84.448853 21.079441,84.219101 
z"/>
<path fill="#324C79" opacity="1.000000" stroke="none" 
	d="
M43.129276,40.646076 
	C42.120983,39.931808 41.093761,38.846989 40.030762,37.433708 
	C41.033436,38.162006 42.071892,39.218761 43.129276,40.646076 
z"/>
<path fill="#B6BDCD" opacity="1.000000" stroke="none" 
	d="
M61.042931,83.969482 
	C59.981892,83.314667 58.920853,82.659859 57.882557,81.622910 
	C58.714550,81.293716 59.523796,81.346664 60.758007,81.417130 
	C61.182968,81.434647 61.107597,81.448807 60.970570,81.859192 
	C60.903336,82.836212 60.973133,83.402847 61.042931,83.969482 
z"/>
<path fill="#4B6189" opacity="1.000000" stroke="none" 
	d="
M39.070812,83.411545 
	C39.824028,82.998093 40.553936,82.976120 41.652328,82.962364 
	C42.058147,83.136963 42.095486,83.303329 41.719101,83.719482 
	C40.977257,84.379532 40.649136,84.789810 40.321014,85.200089 
	C40.097523,85.717995 39.874027,86.235893 39.381287,86.841263 
	C39.090534,85.886826 39.069019,84.844917 39.070812,83.411545 
z"/>
<path fill="#2A4574" opacity="1.000000" stroke="none" 
	d="
M54.000240,82.326012 
	C54.995090,82.271210 55.932415,82.525253 56.869743,82.779297 
	C56.184769,83.180244 55.499794,83.581184 54.432411,83.934189 
	C54.014244,83.469109 53.978481,83.051979 54.000240,82.326012 
z"/>
<path fill="#2F4877" opacity="1.000000" stroke="none" 
	d="
M23.108368,56.373726 
	C23.361853,56.958683 23.581921,57.919689 23.486624,58.941906 
	C23.139154,58.252003 23.107052,57.500893 23.108368,56.373726 
z"/>
<path fill="#4B6189" opacity="1.000000" stroke="none" 
	d="
M92.096588,84.603859 
	C91.315002,84.867516 90.436913,84.835350 89.558830,84.803177 
	C89.783081,84.296013 90.007324,83.788857 90.520805,83.141815 
	C91.206718,83.437309 91.603409,83.872673 92.096588,84.603859 
z"/>
<path fill="#4B6189" opacity="1.000000" stroke="none" 
	d="
M61.368149,83.996140 
	C60.973133,83.402847 60.903336,82.836212 60.933125,81.850937 
	C61.674122,82.030319 62.315533,82.628357 62.977329,83.610443 
	C62.562931,84.003937 62.128151,84.013359 61.368149,83.996140 
z"/>
<path fill="#D0D5DE" opacity="1.000000" stroke="none" 
	d="
M50.659096,62.059242 
	C50.264984,62.383579 49.876251,62.431786 49.487518,62.479996 
	C49.491150,62.196690 49.494781,61.913387 49.498413,61.630081 
	C49.887104,61.681091 50.275791,61.732105 50.659096,62.059242 
z"/>
<path fill="#2F4877" opacity="1.000000" stroke="none" 
	d="
M23.812489,53.134407 
	C23.977322,53.672577 23.846037,54.303284 23.440609,54.968597 
	C23.283100,54.411121 23.399734,53.819035 23.812489,53.134407 
z"/>
<path fill="#4B6189" opacity="1.000000" stroke="none" 
	d="
M47.815498,71.039223 
	C47.648247,71.017754 47.480995,70.996284 47.073593,70.557251 
	C46.894592,69.408020 46.955742,68.676353 47.016891,67.944679 
	C47.016891,67.944679 47.039055,68.008301 47.014519,68.030533 
	C47.472660,68.399857 47.955334,68.746948 48.255997,69.780617 
	C47.987827,70.657867 47.901665,70.848541 47.815498,71.039223 
z"/>
<path fill="#2F4877" opacity="1.000000" stroke="none" 
	d="
M48.988800,53.957474 
	C49.000893,53.754791 49.012985,53.552109 49.064781,53.046928 
	C49.308174,53.756756 49.511864,54.769085 49.365993,55.470581 
	C49.007225,54.758991 48.998013,54.358234 48.988800,53.957474 
z"/>
<path fill="#3A527E" opacity="1.000000" stroke="none" 
	d="
M52.178123,44.322914 
	C52.790031,44.512005 53.347965,44.999088 53.927399,45.795967 
	C53.340652,45.610809 52.732399,45.115860 52.178123,44.322914 
z"/>
<path fill="#3A527E" opacity="1.000000" stroke="none" 
	d="
M48.730938,53.970600 
	C48.998013,54.358234 49.007225,54.758991 49.016640,55.459648 
	C48.555344,55.776531 48.093845,55.793518 47.303368,55.697311 
	C46.974392,55.584118 47.000389,55.241943 47.235432,54.984238 
	C47.713242,54.544178 47.875614,54.306786 47.957596,54.014366 
	C48.129421,54.004154 48.301250,53.993938 48.730938,53.970600 
z"/>
<path fill="#2D4775" opacity="1.000000" stroke="none" 
	d="
M42.357407,81.962234 
	C42.039097,81.803520 42.135262,81.537437 42.111572,81.398514 
	C42.707973,81.012932 43.328068,80.766266 44.094234,80.781830 
	C43.718777,81.403023 43.197243,81.761986 42.357407,81.962234 
z"/>
<path fill="#2C4675" opacity="1.000000" stroke="none" 
	d="
M46.691322,85.018921 
	C46.547974,85.455170 46.095589,85.842560 45.418079,86.132294 
	C45.589397,85.679787 45.985844,85.324921 46.691322,85.018921 
z"/>
<path fill="#2C4675" opacity="1.000000" stroke="none" 
	d="
M50.778290,86.232468 
	C51.001347,86.751053 50.964134,87.247284 50.926922,87.743523 
	C50.640343,87.413689 50.353767,87.083862 50.032795,86.509224 
	C50.171604,86.246315 50.344814,86.228218 50.778290,86.232468 
z"/>
<path fill="#D0D5DE" opacity="1.000000" stroke="none" 
	d="
M47.836617,71.418457 
	C47.901665,70.848541 47.987827,70.657867 48.226463,70.192818 
	C48.378941,69.918442 48.757313,69.933113 48.934196,70.000961 
	C48.947968,70.782425 48.784855,71.496033 48.292107,72.379868 
	C47.927559,72.299294 47.892647,72.048500 47.836617,71.418457 
z"/>
<path fill="#657799" opacity="1.000000" stroke="none" 
	d="
M37.233727,87.082031 
	C37.099655,86.628113 37.208454,86.179649 37.317249,85.731186 
	C37.494537,85.981163 37.671825,86.231148 37.898705,86.726044 
	C37.948288,86.970963 37.476601,87.087486 37.233727,87.082031 
z"/>
<path fill="#B6BDCD" opacity="1.000000" stroke="none" 
	d="
M40.626137,85.258484 
	C40.649136,84.789810 40.977257,84.379532 41.638573,83.962234 
	C41.624928,84.409096 41.278095,84.862984 40.626137,85.258484 
z"/>
<path fill="#2A4574" opacity="1.000000" stroke="none" 
	d="
M43.331715,46.016361 
	C43.056385,45.902473 43.039806,45.696404 43.034187,45.180195 
	C43.226925,45.221428 43.408695,45.572803 43.331715,46.016361 
z"/>
<path fill="#B6BDCD" opacity="1.000000" stroke="none" 
	d="
M47.430374,67.214096 
	C47.423901,67.008911 47.395576,66.780830 47.367252,66.552750 
	C47.505245,66.654640 47.643238,66.756523 47.573795,67.048752 
	C47.366360,67.239098 47.408527,67.191193 47.430374,67.214096 
z"/>
<path fill="#4B6189" opacity="1.000000" stroke="none" 
	d="
M86.612854,86.344971 
	C86.665627,86.427238 86.472824,86.705147 86.086952,86.968140 
	C86.051697,86.815689 86.209496,86.678154 86.612854,86.344971 
z"/>
<path fill="#3A527E" opacity="1.000000" stroke="none" 
	d="
M18.873341,86.934418 
	C18.897261,86.911316 18.819515,87.101776 18.819515,87.101776 
	C18.819515,87.101776 18.956619,86.939812 18.877022,86.969406 
	C18.797422,86.999008 18.849421,86.957527 18.873341,86.934418 
z"/>
<path fill="#F3F2F4" opacity="1.000000" stroke="none" 
	d="
M161.908386,68.678528 
	C162.855591,63.917553 163.840622,59.564411 164.777039,55.426125 
	C165.411331,55.141582 165.711975,54.885574 166.005829,54.893166 
	C170.054291,54.997730 174.878891,54.997898 175.578293,59.908577 
	C176.261292,64.704163 172.005142,67.063065 167.992310,68.514908 
	C166.149277,69.181725 163.971954,68.924538 161.908386,68.678528 
z"/>
<path fill="#E8E9ED" opacity="1.000000" stroke="none" 
	d="
M249.364777,83.498962 
	C247.205811,83.064949 245.412979,82.834854 243.108887,82.539139 
	C245.463318,76.627319 247.764206,70.849937 250.065109,65.072548 
	C250.531174,65.120880 250.997238,65.169212 251.463318,65.217537 
	C250.885849,71.379326 250.308365,77.541107 249.364777,83.498962 
z"/>
<path fill="#B6BDCD" opacity="1.000000" stroke="none" 
	d="
M43.573589,123.950302 
	C43.183533,123.201378 43.169670,122.496109 43.159195,121.435478 
	C45.899254,119.041862 47.965080,121.409752 50.953716,122.160187 
	C52.057064,122.184677 52.483395,122.212219 52.909729,122.239761 
	C53.404129,122.504509 53.898533,122.769264 54.844711,123.076202 
	C55.296482,123.118393 55.665485,123.095871 55.665485,123.095871 
	C54.990532,127.853371 51.278557,125.924110 48.769051,125.937210 
	C47.166050,125.945580 45.556431,124.685394 43.573589,123.950302 
z"/>
<path fill="#2C4675" opacity="1.000000" stroke="none" 
	d="
M56.032307,123.176544 
	C55.665485,123.095871 55.296482,123.118393 55.150246,123.005127 
	C56.012299,121.960976 57.020592,121.030090 58.523163,120.280212 
	C59.689560,119.969193 60.361679,119.477158 61.033802,118.985130 
	C61.033802,118.985130 61.011105,119.012733 61.293755,118.947136 
	C62.069382,118.243080 62.562359,117.604622 63.055336,116.966171 
	C63.055340,116.966171 63.042034,116.991364 63.364368,117.002579 
	C64.130409,117.004929 64.574120,116.996063 65.018211,117.008575 
	C65.018593,117.029938 64.979683,117.047615 64.979683,117.047615 
	C63.950134,121.796249 60.973629,123.950294 56.032307,123.176544 
z"/>
<path fill="#657799" opacity="1.000000" stroke="none" 
	d="
M66.319435,100.106155 
	C66.314522,97.858269 66.469276,95.962822 66.624023,94.067368 
	C67.226852,94.083061 67.829674,94.098755 68.432503,94.114449 
	C68.647690,96.426788 68.862869,98.739128 69.133240,101.644478 
	C67.832756,101.063423 67.155922,100.761017 66.319435,100.106155 
z"/>
<path fill="#657799" opacity="1.000000" stroke="none" 
	d="
M65.997810,110.020454 
	C65.921997,108.863220 65.846176,107.705994 65.770363,106.548759 
	C66.499603,107.209053 67.228851,107.869354 67.647591,109.079391 
	C67.112610,110.731216 66.888130,111.833298 66.480957,112.925186 
	C66.298264,112.914993 65.939827,112.988808 65.750847,112.998215 
	C65.561867,113.007614 65.184631,113.039452 65.153885,112.758698 
	C65.067490,112.298080 65.011833,112.118210 64.956169,111.938339 
	C64.956169,111.938339 64.991936,111.994659 65.244537,111.879486 
	C65.664024,111.183029 65.830917,110.601738 65.997810,110.020454 
z"/>
<path fill="#2C4675" opacity="1.000000" stroke="none" 
	d="
M56.757790,101.706161 
	C56.591167,100.791008 56.533806,100.217911 56.476444,99.644814 
	C56.870697,99.604362 57.264950,99.563904 57.659203,99.523453 
	C57.804485,101.579041 57.949772,103.634636 58.095055,105.690224 
	C57.838470,105.730057 57.581886,105.769882 57.325298,105.809715 
	C57.172550,104.555885 57.019802,103.302055 56.757790,101.706161 
z"/>
<path fill="#D0D5DE" opacity="1.000000" stroke="none" 
	d="
M65.939827,112.988808 
	C65.939827,112.988808 66.298264,112.914993 66.744621,112.921791 
	C67.364487,112.940567 67.538002,112.952553 67.711525,112.964546 
	C67.020317,114.291771 66.329109,115.619003 65.308792,116.996925 
	C64.979683,117.047615 65.018593,117.029938 64.971008,116.679596 
	C64.958908,115.888939 64.994385,115.448639 65.013565,115.014175 
	C64.997276,115.020012 64.975731,115.047768 65.245697,114.897736 
	C65.657051,114.161407 65.798439,113.575111 65.939827,112.988808 
z"/>
<path fill="#4B6189" opacity="1.000000" stroke="none" 
	d="
M65.029846,115.008331 
	C64.994385,115.448639 64.958908,115.888939 64.970627,116.658226 
	C64.574120,116.996063 64.130409,117.004929 63.354370,116.992722 
	C63.151512,116.009468 63.280983,115.047279 63.876022,114.191818 
	C64.571007,114.535141 64.800430,114.771736 65.029846,115.008331 
z"/>
<path fill="#2C4675" opacity="1.000000" stroke="none" 
	d="
M43.353241,97.952988 
	C43.646034,97.364983 43.974068,97.048431 44.302101,96.731888 
	C44.474251,97.103989 44.646404,97.476097 44.818554,97.848198 
	C44.341866,97.973610 43.865173,98.099022 43.353241,97.952988 
z"/>
<path fill="#2C4675" opacity="1.000000" stroke="none" 
	d="
M52.932915,121.912308 
	C52.483395,122.212219 52.057064,122.184677 51.315285,122.097168 
	C51.395710,121.290787 51.791580,120.544365 52.187454,119.797943 
	C52.443668,120.393578 52.699883,120.989212 52.932915,121.912308 
z"/>
<path fill="#657799" opacity="1.000000" stroke="none" 
	d="
M67.767426,104.703049 
	C68.115181,104.157021 68.684319,103.795578 69.253448,103.434128 
	C69.350594,103.702888 69.563965,104.188034 69.527321,104.207718 
	C69.034843,104.472252 68.507492,104.671883 67.767426,104.703049 
z"/>
<path fill="#2C4675" opacity="1.000000" stroke="none" 
	d="
M50.578972,116.403854 
	C50.669807,115.729118 50.962505,115.236206 51.255203,114.743301 
	C51.452995,114.938889 51.846745,115.268135 51.818504,115.309540 
	C51.510639,115.760857 51.136753,116.167137 50.578972,116.403854 
z"/>
<path fill="#2C4675" opacity="1.000000" stroke="none" 
	d="
M55.410259,109.956024 
	C55.796310,109.720940 56.180065,109.722893 56.561653,109.752670 
	C56.572433,109.753517 56.560062,110.050995 56.558487,110.210152 
	C56.174877,110.205757 55.791271,110.201363 55.410259,109.956024 
z"/>
<path fill="#E8E9ED" opacity="1.000000" stroke="none" 
	d="
M67.838013,112.605392 
	C67.538002,112.952553 67.364487,112.940567 66.927315,112.931984 
	C66.888130,111.833298 67.112610,110.731216 67.598145,109.423889 
	C67.894295,110.227852 67.929398,111.237045 67.838013,112.605392 
z"/>
<path fill="#2C4675" opacity="1.000000" stroke="none" 
	d="
M41.746429,92.705650 
	C42.388084,93.019203 43.037601,93.375992 43.687122,93.732773 
	C43.530094,93.971184 43.373066,94.209587 43.216034,94.447998 
	C42.768967,94.080482 42.321899,93.712959 41.771378,93.039040 
	C41.667923,92.732635 41.754295,92.748878 41.746429,92.705650 
z"/>
<path fill="#2C4675" opacity="1.000000" stroke="none" 
	d="
M44.685417,114.161766 
	C44.323284,114.324875 43.991474,114.274460 43.659660,114.224052 
	C44.011684,114.132118 44.363712,114.040184 44.685417,114.161766 
z"/>
<path fill="#D0D5DE" opacity="1.000000" stroke="none" 
	d="
M65.013565,115.014175 
	C64.800430,114.771736 64.571007,114.535141 64.144897,114.143669 
	C64.048401,113.303368 64.148598,112.617935 64.602486,111.935425 
	C65.011833,112.118210 65.067490,112.298080 65.057045,113.086853 
	C64.985878,114.146431 64.980804,114.597099 64.975731,115.047768 
	C64.975731,115.047768 64.997276,115.020012 65.013565,115.014175 
z"/>
<path fill="#B6BDCD" opacity="1.000000" stroke="none" 
	d="
M62.636971,116.899689 
	C62.562359,117.604622 62.069382,118.243080 61.280174,118.958748 
	C61.395496,118.301704 61.807053,117.567459 62.636971,116.899689 
z"/>
<path fill="#B6BDCD" opacity="1.000000" stroke="none" 
	d="
M60.746361,118.685661 
	C60.361679,119.477158 59.689560,119.969193 58.840515,120.229584 
	C59.262035,119.460693 59.860477,118.923447 60.746361,118.685661 
z"/>
<path fill="#2C4675" opacity="1.000000" stroke="none" 
	d="
M44.738697,101.595139 
	C44.859642,101.443161 45.066574,101.421936 45.273499,101.400719 
	C45.123894,101.509109 44.974289,101.617500 44.738697,101.595139 
z"/>
<path fill="#2C4675" opacity="1.000000" stroke="none" 
	d="
M44.989052,117.253319 
	C45.093975,117.413307 45.042236,117.574585 44.990501,117.735863 
	C44.937798,117.575447 44.885094,117.415024 44.989052,117.253319 
z"/>
<path fill="#2C4675" opacity="1.000000" stroke="none" 
	d="
M50.638191,110.755447 
	C50.623611,110.992653 50.494934,111.121964 50.366253,111.251266 
	C50.418865,111.050034 50.471478,110.848793 50.638191,110.755447 
z"/>
<path fill="#D0D5DE" opacity="1.000000" stroke="none" 
	d="
M65.636703,110.075134 
	C65.830917,110.601738 65.664024,111.183029 65.211334,111.882767 
	C65.042221,111.377411 65.158905,110.753616 65.636703,110.075134 
z"/>
<path fill="#2C4675" opacity="1.000000" stroke="none" 
	d="
M56.361893,97.244370 
	C56.376480,97.007332 56.505074,96.878113 56.633675,96.748901 
	C56.581081,96.949997 56.528492,97.151093 56.361893,97.244370 
z"/>
<path fill="#F8F7F7" opacity="1.000000" stroke="none" 
	d="
M38.785423,117.488113 
	C38.541142,117.753944 38.314529,117.610794 38.059727,117.144958 
	C38.193867,117.058060 38.451054,117.143677 38.785423,117.488113 
z"/>
<path fill="#2C4675" opacity="1.000000" stroke="none" 
	d="
M42.528996,108.545952 
	C42.477421,108.575836 42.580570,108.516068 42.528996,108.545952 
z"/>
<path fill="#2F4877" opacity="1.000000" stroke="none" 
	d="
M39.027950,57.147213 
	C39.196884,59.501144 39.365818,61.855072 39.618095,65.370346 
	C36.714149,62.652264 36.676033,60.215038 37.953911,57.292381 
	C38.668697,57.085175 38.848324,57.116196 39.027950,57.147213 
z"/>
<path fill="#2F4877" opacity="1.000000" stroke="none" 
	d="
M35.141106,45.770004 
	C33.403118,45.895050 32.003334,45.895050 30.603554,45.895050 
	C30.687668,45.256859 30.771784,44.618668 30.855900,43.980476 
	C32.397038,44.535305 33.938179,45.090134 35.141106,45.770004 
z"/>
<path fill="#4B6189" opacity="1.000000" stroke="none" 
	d="
M41.161629,78.063705 
	C40.569798,78.058998 40.096313,77.593552 39.291733,77.077614 
	C38.960644,77.027130 39.006813,77.009979 39.028038,76.705307 
	C38.682655,75.608849 38.316048,74.817062 38.207462,73.866531 
	C38.644535,73.142052 38.823586,72.576309 39.002636,72.010574 
	C39.674656,72.707657 40.346676,73.404739 40.992485,74.436249 
	C41.070839,75.714775 41.175407,76.658867 41.161629,78.063705 
z"/>
<path fill="#354E7B" opacity="1.000000" stroke="none" 
	d="
M33.977455,69.450233 
	C33.977455,69.450233 33.989727,69.233185 34.020348,69.128815 
	C36.110580,67.814377 37.972183,67.353661 38.574608,70.660507 
	C37.434906,71.020340 36.650513,71.033295 35.643082,71.011192 
	C35.420036,70.976128 34.968472,70.975044 34.968472,70.975044 
	C34.968472,70.975044 35.027637,70.980072 34.965874,70.685486 
	C34.595230,70.077339 34.286343,69.763786 33.977455,69.450233 
z"/>
<path fill="#2F4877" opacity="1.000000" stroke="none" 
	d="
M35.866123,71.046257 
	C36.650513,71.033295 37.434906,71.020340 38.611710,71.007835 
	C39.003525,71.175301 39.002930,71.342308 39.002487,71.759949 
	C38.823586,72.576309 38.644535,73.142052 37.966545,73.780647 
	C37.301273,73.891083 37.134945,73.928665 36.968613,73.966248 
	C36.968613,73.966248 37.001251,74.000267 37.074818,73.751953 
	C37.062943,73.344200 36.977505,73.184761 36.799969,72.760101 
	C36.427284,72.012009 36.146706,71.529129 35.866123,71.046257 
z"/>
<path fill="#657799" opacity="1.000000" stroke="none" 
	d="
M34.303173,42.903183 
	C33.015602,42.930611 32.051418,42.930611 31.087236,42.930611 
	C31.072250,42.714863 31.057264,42.499111 31.042278,42.283363 
	C32.172279,42.226837 33.302021,42.162918 34.432610,42.123047 
	C34.575417,42.118011 34.852692,42.262493 34.846321,42.298100 
	C34.810665,42.497379 34.707001,42.684490 34.303173,42.903183 
z"/>
<path fill="#E8E9ED" opacity="1.000000" stroke="none" 
	d="
M25.986597,66.145050 
	C25.963152,65.958611 25.939707,65.772163 25.985687,65.312523 
	C27.897972,65.119141 29.740829,65.198952 31.531990,65.724167 
	C31.321014,66.224388 31.161739,66.279198 30.598207,66.210022 
	C28.791500,66.105713 27.389048,66.125381 25.986597,66.145050 
z"/>
<path fill="#2F4877" opacity="1.000000" stroke="none" 
	d="
M29.727554,57.994026 
	C29.577892,57.376244 29.625708,56.948856 29.673523,56.521473 
	C30.043610,56.695545 30.413698,56.869614 30.783787,57.043686 
	C30.497538,57.423931 30.211285,57.804176 29.727554,57.994026 
z"/>
<path fill="#3A527E" opacity="1.000000" stroke="none" 
	d="
M40.345177,52.961472 
	C40.717690,52.659954 41.086857,52.618332 41.456020,52.576714 
	C41.453396,52.839375 41.450775,53.102032 41.448154,53.364693 
	C41.079376,53.316917 40.710602,53.269142 40.345177,52.961472 
z"/>
<path fill="#2F4877" opacity="1.000000" stroke="none" 
	d="
M40.121971,55.978401 
	C40.588257,56.421604 41.054546,56.864807 41.520832,57.308010 
	C41.123409,57.362152 40.725983,57.416298 40.187008,56.995716 
	C40.070961,56.340130 40.096466,56.159267 40.121971,55.978401 
z"/>
<path fill="#2F4877" opacity="1.000000" stroke="none" 
	d="
M30.956587,53.594933 
	C30.719267,53.205406 30.721161,52.818096 30.751108,52.432964 
	C30.751955,52.422108 31.052160,52.434525 31.212780,52.436085 
	C31.208431,52.823208 31.204084,53.210335 30.956587,53.594933 
z"/>
<path fill="#3A527E" opacity="1.000000" stroke="none" 
	d="
M39.925591,55.750538 
	C40.096466,56.159267 40.070961,56.340130 40.014442,56.794014 
	C39.983425,57.067036 39.503311,57.079357 39.265633,57.113285 
	C38.848324,57.116196 38.668697,57.085175 38.216930,57.021755 
	C38.539600,56.500458 39.134407,56.011566 39.925591,55.750538 
z"/>
<path fill="#2F4877" opacity="1.000000" stroke="none" 
	d="
M31.002464,66.334007 
	C31.161739,66.279198 31.321014,66.224388 31.714596,66.075027 
	C32.282856,66.461807 32.616814,66.943130 32.632782,67.692154 
	C31.861746,67.964172 31.408695,67.968498 30.955645,67.972824 
	C30.955645,67.972824 30.995228,68.000946 31.046505,67.675766 
	C31.083981,67.123390 31.070179,66.896202 31.038965,66.585892 
	C31.021555,66.502777 31.002464,66.334007 31.002464,66.334007 
z"/>
<path fill="#3A527E" opacity="1.000000" stroke="none" 
	d="
M46.517342,52.023262 
	C45.775455,52.308147 45.002213,52.625206 44.228966,52.942265 
	C44.154865,52.705765 44.080761,52.469261 44.006657,52.232758 
	C44.616932,52.142998 45.227207,52.053238 46.184509,51.975906 
	C46.531532,51.988331 46.485981,52.055435 46.517342,52.023262 
z"/>
<path fill="#4B6189" opacity="1.000000" stroke="none" 
	d="
M46.026012,78.024498 
	C45.395626,77.813789 44.765236,77.603073 44.300667,77.186234 
	C44.693840,76.968483 44.921196,76.956841 45.553562,77.216446 
	C45.981049,77.666618 46.003529,77.845558 46.026012,78.024498 
z"/>
<path fill="#D0D5DE" opacity="1.000000" stroke="none" 
	d="
M46.676147,67.919785 
	C46.955742,68.676353 46.894592,69.408020 46.825638,70.507294 
	C46.657028,69.881561 46.496216,68.888229 46.676147,67.919785 
z"/>
<path fill="#B6BDCD" opacity="1.000000" stroke="none" 
	d="
M31.084843,68.336670 
	C31.408695,67.968498 31.861746,67.964172 32.655411,67.998932 
	C33.077084,68.374977 33.267200,68.630966 33.789833,68.904846 
	C33.080208,68.902641 32.147121,68.801575 31.084843,68.336670 
z"/>
<path fill="#D0D5DE" opacity="1.000000" stroke="none" 
	d="
M39.637726,44.866737 
	C40.377110,45.054169 40.760609,45.281452 41.353580,45.770287 
	C40.580540,45.811928 39.598026,45.592026 38.615509,45.372124 
	C38.837616,45.216949 39.059727,45.061771 39.637726,44.866737 
z"/>
<path fill="#D0D5DE" opacity="1.000000" stroke="none" 
	d="
M46.007660,78.007111 
	C46.003529,77.845558 45.981049,77.666618 45.894951,77.224442 
	C45.880440,76.800385 45.929550,76.639572 45.984497,76.226402 
	C46.320518,76.404076 46.650707,76.834122 46.723846,77.694672 
	C46.295483,78.068352 46.124165,78.011528 45.952847,77.954697 
	C45.952847,77.954697 45.989311,77.989716 46.007660,78.007111 
z"/>
<path fill="#4B6189" opacity="1.000000" stroke="none" 
	d="
M46.559921,75.066772 
	C46.559921,75.066772 46.238499,75.094162 46.080383,75.130219 
	C46.069599,74.783752 46.216930,74.401222 46.589912,74.277832 
	C46.730350,74.713562 46.645138,74.890167 46.559921,75.066772 
z"/>
<path fill="#B6BDCD" opacity="1.000000" stroke="none" 
	d="
M47.028389,75.089569 
	C46.645138,74.890167 46.730350,74.713562 46.815472,74.242813 
	C47.009262,73.543442 47.203140,73.138214 47.704182,72.590744 
	C47.839848,73.336456 47.668354,74.224411 47.028389,75.089569 
z"/>
<path fill="#2F4877" opacity="1.000000" stroke="none" 
	d="
M47.762032,54.110863 
	C47.875614,54.306786 47.713242,54.544178 47.273033,54.816830 
	C47.154579,54.614494 47.318199,54.381241 47.762032,54.110863 
z"/>
<path fill="#2F4877" opacity="1.000000" stroke="none" 
	d="
M44.471302,64.455429 
	C44.522297,64.425903 44.420307,64.484962 44.471302,64.455429 
z"/>
<path fill="#324C79" opacity="1.000000" stroke="none" 
	d="
M39.454056,41.531181 
	C39.424217,41.479542 39.483898,41.582825 39.454056,41.531181 
z"/>
<path fill="#2F4877" opacity="1.000000" stroke="none" 
	d="
M43.449924,66.531921 
	C43.416924,66.476898 43.482925,66.586952 43.449924,66.531921 
z"/>
<path fill="#3A527E" opacity="1.000000" stroke="none" 
	d="
M26.997135,87.001663 
	C25.358709,82.348297 26.054232,81.516586 31.828344,81.666603 
	C30.127783,83.322571 28.603653,84.806740 27.043606,86.641823 
	C27.007689,86.992737 27.000364,86.999695 26.997135,87.001663 
z"/>
<path fill="#3A527E" opacity="1.000000" stroke="none" 
	d="
M36.111774,83.759834 
	C35.921619,84.356972 35.749168,84.627220 35.258316,84.926102 
	C34.936729,84.097008 34.729313,83.168671 34.830479,82.275276 
	C34.855347,82.055664 35.886784,81.950020 36.455475,81.791985 
	C36.376965,82.358223 36.298458,82.924454 36.111774,83.759834 
z"/>
<path fill="#2D4775" opacity="1.000000" stroke="none" 
	d="
M30.598207,66.210022 
	C31.002464,66.334007 31.021555,66.502777 30.773800,66.727905 
	C30.339642,67.025093 30.153240,67.097168 29.619656,67.104004 
	C28.487082,67.366447 27.701689,67.694138 26.916298,68.021828 
	C26.702810,67.937912 26.514164,67.815750 26.264927,67.522324 
	C26.146864,67.181992 26.114231,66.974686 26.034100,66.456223 
	C27.389048,66.125381 28.791500,66.105713 30.598207,66.210022 
z"/>
<path fill="#D0D5DE" opacity="1.000000" stroke="none" 
	d="
M36.861656,74.308578 
	C37.134945,73.928665 37.301273,73.891083 37.708519,73.939392 
	C38.316048,74.817062 38.682655,75.608849 39.026417,76.730118 
	C38.253944,76.256714 37.504322,75.453812 36.861656,74.308578 
z"/>
<path fill="#B6BDCD" opacity="1.000000" stroke="none" 
	d="
M35.643082,71.011192 
	C36.146706,71.529129 36.427284,72.012009 36.500931,72.769730 
	C36.094723,73.054321 35.895454,73.064072 35.696190,73.073822 
	C35.342323,72.560715 34.988453,72.047607 34.801529,71.254776 
	C34.968472,70.975044 35.420036,70.976128 35.643082,71.011192 
z"/>
<path fill="#D0D5DE" opacity="1.000000" stroke="none" 
	d="
M27.301746,68.052948 
	C27.701689,67.694138 28.487082,67.366447 29.623522,67.301987 
	C29.974569,67.565224 29.990725,67.961060 29.990725,67.961060 
	C29.222881,68.002060 28.455038,68.043060 27.301746,68.052948 
z"/>
<path fill="#B6BDCD" opacity="1.000000" stroke="none" 
	d="
M30.246529,68.053375 
	C29.990725,67.961060 29.974569,67.565224 29.970703,67.367233 
	C30.153240,67.097168 30.339642,67.025093 30.791210,66.811020 
	C31.070179,66.896202 31.083981,67.123390 31.065823,67.690460 
	C30.856688,68.068787 30.679510,68.107239 30.246529,68.053375 
z"/>
<path fill="#D0D5DE" opacity="1.000000" stroke="none" 
	d="
M35.824001,73.378716 
	C35.895454,73.064072 36.094723,73.054321 36.593033,73.034943 
	C36.977505,73.184761 37.062943,73.344200 37.091263,73.768860 
	C36.673363,73.917244 36.312588,73.800430 35.824001,73.378716 
z"/>
<path fill="#B6BDCD" opacity="1.000000" stroke="none" 
	d="
M33.907730,69.848572 
	C34.286343,69.763786 34.595230,70.077339 34.967564,70.715126 
	C34.633343,70.775215 34.235676,70.511070 33.907730,69.848572 
z"/>
<path fill="#4B6189" opacity="1.000000" stroke="none" 
	d="
M46.055912,78.207275 
	C46.124165,78.011528 46.295483,78.068352 46.717476,78.022881 
	C46.970184,78.214813 46.877716,78.475510 46.526924,78.834244 
	C46.295055,78.797157 46.227016,78.628502 46.055912,78.207275 
z"/>
<path fill="#4B6189" opacity="1.000000" stroke="none" 
	d="
M65.245697,114.897736 
	C64.980804,114.597099 64.985878,114.146431 65.087791,113.367607 
	C65.184631,113.039452 65.561867,113.007614 65.750847,112.998215 
	C65.798439,113.575111 65.657051,114.161407 65.245697,114.897736 
z"/>
</svg>